<?xml version="1.0" encoding="UTF-8" standalone="no"?>
<svg xmlns="http://www.w3.org/2000/svg" xmlns:svg="http://www.w3.org/2000/svg" width="4.2in" height="2.1in" viewBox="0 0 106.68 53.339998" version="1.1">
  <defs>
    <marker style="overflow:visible" id="marker3" refX="2" refY="0" orient="auto-start-reverse" markerWidth="1" markerHeight="1" viewBox="0 0 1 1" preserveAspectRatio="xMidYMid">
      <path style="fill:none;fill-rule:evenodd;stroke:context-stroke;stroke-width:1.08" d="m -0.7647042,-3.0274156 c 1.656,0 3,1.344 3,3 0,1.656 -1.344,3 -3,3"/>
    </marker>
    <marker style="overflow:visible" id="SemiCircleEmpty" refX="2" refY="0" orient="auto-start-reverse" markerWidth="1" markerHeight="1" viewBox="0 0 1 1" preserveAspectRatio="xMidYMid">
      <path style="fill:none;fill-rule:evenodd;stroke:context-stroke;stroke-width:1.08" d="m -0.7647042,-3.0274156 c 1.656,0 3,1.344 3,3 0,1.656 -1.344,3 -3,3"/>
    </marker>
  </defs>
  <g>
    <path style="fill:none;stroke:#000000;stroke-width:0.1778;stroke-dasharray:none" d="M 28.311829,17.837974 H 7.5647662 c 0.0047,-5.122089 0.00398,-12.7608144 4e-7,-17.07634439 H 28.31183 c 0,0 13.945973,4.65453599 26.229391,4.90673209 C 66.824639,5.4161656 80.770612,0.76162961 80.770612,0.76162961 h 20.747058 c -0.004,4.31552999 -0.005,11.95425539 0,17.07634439 H 80.770613 c 0,0 -13.945973,-4.894822 -26.229392,-5.147018 -12.283419,0.252196 -26.229392,5.147018 -26.229392,5.147018 z"/>
    <path style="fill:none;stroke:#000000;stroke-width:0.1778;stroke-dasharray:none" d="M 47.808405,42.884152 C 35.526812,43.136348 21.580838,48.03117 21.580838,48.03117 H 0.83377474 c 0.0047,-5.122089 0.00398,-12.760815 4e-7,-17.076345 H 21.580839 c 0,0 13.945973,4.654536 26.227566,4.906732 0,0 5.169201,0.66169 5.084246,2.020958 -0.08495,1.359268 0,3.058352 0,3.058352 0,0 -0.568665,1.847668 -5.084246,1.943285 z"/>
    <path style="fill:none;stroke:#000000;stroke-width:0.1778;stroke-dasharray:none" d="m 58.982486,42.884152 c 12.281593,0.252196 26.227567,5.147018 26.227567,5.147018 h 20.747057 c -0.005,-5.122089 -0.004,-12.760815 0,-17.076345 H 85.210052 c 0,0 -13.945973,4.654536 -26.227566,4.906732 0,0 -5.169201,0.66169 -5.084246,2.020958 0.08495,1.359268 0,3.058352 0,3.058352 0,0 0.568665,1.847668 5.084246,1.943285 z"/>
    <path style="fill:none;stroke:#000000;stroke-width:0.172;stroke-dasharray:none;marker-start:url(#marker3);marker-end:url(#SemiCircleEmpty)" d="M 54.51799,5.8993707 V 12.700233"/>
    <path style="fill:none;stroke:#000000;stroke-width:0.174882;stroke-dasharray:none;marker-start:url(#marker3);marker-end:url(#SemiCircleEmpty)" d="M 28.416284,19.872983 H 80.777108"/>
    <text xml:space="preserve" style="font-size:2.82223px;font-family:sans-serif;text-align:center;text-anchor:middle;fill:none;stroke:#000000;stroke-width:0.1778;stroke-dasharray:none" x="57.032253" y="10.32851"><tspan id="tspan3" style="fill:#000000;fill-opacity:1;stroke:none;stroke-width:0.1778" x="57.032253" y="10.32851">A</tspan></text>
    <path style="fill:none;stroke:#000000;stroke-width:0.172;stroke-dasharray:none;marker-start:url(#marker3);marker-end:url(#SemiCircleEmpty)" d="m 54.517991,37.652731 v 3.255761"/>
    <text xml:space="preserve" style="font-size:2.82223px;font-family:sans-serif;text-align:center;text-anchor:middle;fill:none;stroke:#000000;stroke-width:0.1778;stroke-dasharray:none" x="56.9473" y="40.309319"><tspan style="fill:#000000;fill-opacity:1;stroke:none;stroke-width:0.1778" x="56.9473" y="40.309319">B</tspan></text>
    <path style="fill:#000000;fill-opacity:1;stroke:#000000;stroke-width:0.178;stroke-dasharray:none;stroke-opacity:1" d="M 28.190575,9.2998024 V 21.996073"/>
    <path style="fill:#000000;fill-opacity:1;stroke:#000000;stroke-width:0.178;stroke-dasharray:none;stroke-opacity:1" d="M 80.825948,9.2998024 V 21.996073"/>
    <path style="fill:none;stroke:#000000;stroke-width:0.1778;stroke-dasharray:none;marker-start:url(#marker3);marker-end:url(#SemiCircleEmpty)" d="M 21.97657,50.066179 H 84.642604"/>
    <path style="fill:#000000;fill-opacity:1;stroke:#000000;stroke-width:0.178;stroke-dasharray:none;stroke-opacity:1" d="M 21.724176,39.492998 V 52.189269"/>
    <path style="fill:#000000;fill-opacity:1;stroke:#000000;stroke-width:0.178;stroke-dasharray:none;stroke-opacity:1" d="M 84.893874,39.492998 V 52.189269"/>
    <text xml:space="preserve" style="font-size:2.82223px;font-family:sans-serif;text-align:center;text-anchor:middle;fill:#000000;fill-opacity:1;stroke:#000000;stroke-width:0.172;stroke-dasharray:none;stroke-opacity:1" x="54.593941" y="18.954206"><tspan style="stroke:none;stroke-width:0.172" x="54.593941" y="18.954206">C</tspan></text>
    <text xml:space="preserve" style="font-size:2.82223px;font-family:sans-serif;text-align:center;text-anchor:middle;fill:#000000;fill-opacity:1;stroke:#000000;stroke-width:0.172;stroke-dasharray:none;stroke-opacity:1" x="52.974037" y="48.280579"><tspan style="stroke:none;stroke-width:0.172" x="52.974037" y="48.280579">D</tspan></text>
  </g>
</svg>