<?xml version="1.0" encoding="UTF-8" standalone="no"?>
<svg xmlns="http://www.w3.org/2000/svg" xmlns:svg="http://www.w3.org/2000/svg" width="6in" height="3.02in" viewBox="0 0 152.4003 76.70815" version="1.1">
  <defs>
    <marker style="overflow:visible" id="Stop" refX="0" refY="0" orient="auto" markerWidth="1" markerHeight="1" viewBox="0 0 1 1" preserveAspectRatio="xMidYMid">
      <path style="fill:none;stroke:context-stroke;stroke-width:1" d="M 0,4 V -4" id="path23"/>
    </marker>
    <marker style="overflow:visible" id="Triangle" refX="0" refY="0" orient="auto-start-reverse" markerWidth="1" markerHeight="1" viewBox="0 0 1 1" preserveAspectRatio="xMidYMid">
      <path transform="scale(0.5)" style="fill:context-stroke;fill-rule:evenodd;stroke:context-stroke;stroke-width:1pt" d="M 5.77,0 -2.88,5 V -5 Z" id="path135"/>
    </marker>
  </defs>
  <g id="layer1">
    <g id="g2">
      <path style="fill:none;stroke:#000000;stroke-width:0.202874" d="m 32.592032,0.94044647 c 4.923342,0.81264993 4.923501,14.15819353 0,14.96987853 -4.596149,0.757718 -30.899364,0 -30.899364,0 -1.34478522,-5.106955 -1.58384876,-9.9335383 0,-14.96987853 0,0 25.72745,-0.85367912 30.899364,0 z"/>
      <path style="fill:none;stroke:#000000;stroke-width:0.202874" d="m 26.258622,1.687421 c 0,0 5.045772,6.7832606 0,13.434506 L 21.172703,13.778476 V 3.126832 Z"/>
      <path style="fill:none;stroke:#000000;stroke-width:0.202874" d="m 6.9124751,1.6879017 c 0,0 -5.0457727,6.7832607 0,13.4345053 l 2.8788208,-1.34345 V 3.1273128 Z"/>
      <path style="fill:none;stroke:#000000;stroke-width:0.202874" d="M 25.040062,1.2635971 19.806594,2.5528322 H 15.938887 V 1.2635971 Z"/>
      <path style="fill:none;stroke:#000000;stroke-width:0.202874" d="M 15.497833,2.553758 11.155145,2.6551952 10.425708,1.4341588 15.489351,1.3152411 Z"/>
      <path style="fill:none;stroke:#000000;stroke-width:0.202874" d="m 25.040062,15.454628 -5.233468,-1.289236 h -3.867707 v 1.289236 z"/>
      <path style="fill:none;stroke:#000000;stroke-width:0.202874" d="m 15.497833,14.164467 -4.342688,-0.101437 -0.729437,1.221036 5.063643,0.118917 z"/>
    </g>
    <g id="g1">
      <path style="fill:none;stroke:#000000;stroke-width:0.202874" d="m 136.33283,44.244074 c 0.81264,-4.923342 14.1582,-4.923502 14.96988,0 0.75771,4.596147 0,30.899363 0,30.899363 -5.10696,1.344785 -9.93354,1.583848 -14.96988,0 0,0 -0.85368,-25.72745 0,-30.899363 z"/>
      <path style="fill:none;stroke:#000000;stroke-width:0.202874" d="m 137.07981,50.577484 c 0,0 6.78326,-5.045773 13.4345,0 l -1.34344,5.085918 h -10.65165 z"/>
      <path style="fill:none;stroke:#000000;stroke-width:0.202874" d="m 137.08028,69.923629 c 0,0 6.78327,5.045774 13.43451,0 l -1.34345,-2.87882 H 138.5197 Z"/>
      <path style="fill:none;stroke:#000000;stroke-width:0.202874" d="m 136.65598,51.796043 1.28924,5.233468 v 3.867706 h -1.28924 z"/>
      <path style="fill:none;stroke:#000000;stroke-width:0.202874" d="m 137.94614,61.338271 0.10144,4.342688 -1.22103,0.729438 -0.11893,-5.063644 z"/>
      <path style="fill:none;stroke:#000000;stroke-width:0.202874" d="m 150.84701,51.796043 -1.28923,5.233468 v 3.867706 h 1.28923 z"/>
      <path style="fill:none;stroke:#000000;stroke-width:0.202874" d="m 149.55685,61.338271 -0.10144,4.342688 1.22105,0.729438 0.11891,-5.063644 z"/>
    </g>
    <path style="fill:none;stroke:#000000;stroke-width:0.304313;stroke-dasharray:none" d="M 115.03897,30.338303 V 76.188532 H 0.78327188 V 30.338303 Z"/>
    <path style="fill:none;stroke:#000000;stroke-width:0.202874;marker-start:url(#Triangle);marker-end:url(#Triangle)" d="m 143.79645,30.182279 -0.0591,9.622834"/>
    <path style="fill:none;stroke:#000000;stroke-width:0.202874;marker-start:url(#Triangle);marker-end:url(#Triangle)" d="M 18.535649,17.160376 V 29.81765"/>
    <path style="fill:none;stroke:#000000;stroke-width:0.202874;marker-start:url(#Triangle);marker-end:url(#Triangle)" d="M 18.535649,5.0345733 V 15.724066"/>
    <path style="fill:none;stroke:#000000;stroke-width:0.202874;marker-start:url(#Stop);marker-end:url(#Stop)" d="M 22.814047,5.1240609 151.16227,39.747492"/>
    <text xml:space="preserve" style="font-size:4.9389px;font-family:sans-serif;text-align:center;text-anchor:middle;fill:none;stroke:#000000;stroke-width:0.202874" x="16.52342" y="24.426777"><tspan style="font-size:4.9389px;fill:#000000;fill-opacity:1;stroke:none;stroke-width:0.202874" x="16.52342" y="24.426777">d</tspan></text>
    <text xml:space="preserve" style="font-size:4.9389px;font-family:sans-serif;text-align:center;text-anchor:middle;fill:none;stroke:#000000;stroke-width:0.202874" x="62.317684" y="29.234751"><tspan style="font-size:4.9389px;fill:#000000;fill-opacity:1;stroke:none;stroke-width:0.202874" x="62.317684" y="29.234751">s</tspan></text>
    <text xml:space="preserve" style="font-size:4.9389px;font-family:sans-serif;text-align:center;text-anchor:middle;fill:#000000;fill-opacity:1;stroke:none;stroke-width:0.202874" x="146.10048" y="36.129795"><tspan style="font-size:4.9389px;stroke-width:0.202874" x="146.10048" y="36.129795">a</tspan></text>
    <text xml:space="preserve" style="font-size:4.9389px;font-family:sans-serif;text-align:center;text-anchor:middle;white-space:pre;inline-size:4.23966;display:inline;fill:#000000;fill-opacity:1;stroke:none;stroke-width:0.202874" x="130.98079" y="38.001312"><tspan x="130.98079" y="38.001312">b</tspan></text>
    <text xml:space="preserve" style="font-size:4.9389px;font-family:sans-serif;text-align:center;text-anchor:middle;fill:#000000;fill-opacity:1;stroke:none;stroke-width:0.202874" x="16.779554" y="9.9986715"><tspan style="font-size:4.9389px;stroke-width:0.202874" x="16.779554" y="9.9986715">c</tspan></text>
    <path style="fill:#000000;fill-opacity:1;stroke:#000000;stroke-width:0.202875;stroke-dasharray:0.811498, 0.811498;stroke-dashoffset:0;stroke-opacity:1" d="M 22.814048,5.1240609 V 30.338303"/>
    <path style="fill:#000000;fill-opacity:1;stroke:#000000;stroke-width:0.202875;stroke-dasharray:0.811498, 0.811498;stroke-dashoffset:0;stroke-opacity:1" d="m 151.16227,39.747493 h -36.1233"/>
  </g>
</svg>