<?xml version="1.0" encoding="UTF-8" standalone="no"?>
<!-- Created with Inkscape (http://www.inkscape.org/) -->

<svg
   width="4in"
   height="4in"
   viewBox="0 0 101.6 101.6"
   version="1.1"
   id="svg1"
   inkscape:version="1.3.2 (091e20e, 2023-11-25, custom)"
   sodipodi:docname="car_jack.svg"
   inkscape:export-filename="car_jack.png"
   inkscape:export-xdpi="96"
   inkscape:export-ydpi="96"
   xmlns:inkscape="http://www.inkscape.org/namespaces/inkscape"
   xmlns:sodipodi="http://sodipodi.sourceforge.net/DTD/sodipodi-0.dtd"
   xmlns="http://www.w3.org/2000/svg"
   xmlns:svg="http://www.w3.org/2000/svg">
  <sodipodi:namedview
     id="namedview1"
     pagecolor="#ffffff"
     bordercolor="#000000"
     borderopacity="0.25"
     inkscape:showpageshadow="2"
     inkscape:pageopacity="0.0"
     inkscape:pagecheckerboard="0"
     inkscape:deskcolor="#d1d1d1"
     inkscape:document-units="in"
     inkscape:zoom="2.2022289"
     inkscape:cx="183.90459"
     inkscape:cy="176.18514"
     inkscape:window-width="1920"
     inkscape:window-height="1112"
     inkscape:window-x="-8"
     inkscape:window-y="1342"
     inkscape:window-maximized="1"
     inkscape:current-layer="layer1" />
  <defs
     id="defs1">
    <marker
       style="overflow:visible"
       id="Triangle"
       refX="0"
       refY="0"
       orient="auto-start-reverse"
       inkscape:stockid="Triangle arrow"
       markerWidth="1"
       markerHeight="1"
       viewBox="0 0 1 1"
       inkscape:isstock="true"
       inkscape:collect="always"
       preserveAspectRatio="xMidYMid">
      <path
         transform="scale(0.5)"
         style="fill:context-stroke;fill-rule:evenodd;stroke:context-stroke;stroke-width:1pt"
         d="M 5.77,0 -2.88,5 V -5 Z"
         id="path135" />
    </marker>
  </defs>
  <g
     inkscape:label="Layer 1"
     inkscape:groupmode="layer"
     id="layer1">
    <rect
       style="fill:#bebebe;fill-opacity:1;stroke:#000000;stroke-width:0.198838;stroke-dasharray:none"
       id="rect3"
       width="98.381363"
       height="2.0432632"
       x="1.187178"
       y="48.931454" />
    <path
       id="rect2-7"
       style="fill:#bebebe;stroke:#000000;stroke-width:0.2032"
       d="M 51.09173,4.8789382 84.841819,53.07906 88.958783,50.196332 55.208693,1.9962102 Z" />
    <path
       id="rect2"
       style="fill:#bebebe;stroke:#000000;stroke-width:0.2032"
       d="M 51.158866,94.555228 84.908955,46.355106 89.025918,49.237834 55.275829,97.437956 Z" />
    <path
       id="rect2-9-7"
       style="fill:#bebebe;stroke:#000000;stroke-width:0.2032"
       d="M 49.899319,4.8789382 16.14923,53.07906 12.032267,50.196332 45.782356,1.9962102 Z" />
    <path
       id="rect2-9"
       style="fill:#bebebe;stroke:#000000;stroke-width:0.2032"
       d="M 49.966455,94.555228 16.216366,46.355106 12.099403,49.237834 45.849492,97.437956 Z" />
    <path
       id="rect1"
       style="fill:#bebebe;fill-opacity:1;stroke:#000000;stroke-width:0.207962"
       d="M 31.571462,89.185265 H 67.854776 V 97.4643 H 31.571462 Z" />
    <path
       id="path2"
       style="fill:#bebebe;stroke:#000000;stroke-width:0.2032;stroke-dasharray:none"
       d="m 16.122685,50.018246 a 0.8296775,0.8296775 0 0 1 -0.829678,0.829678 0.8296775,0.8296775 0 0 1 -0.829677,-0.829678 0.8296775,0.8296775 0 0 1 0.829677,-0.829677 0.8296775,0.8296775 0 0 1 0.829678,0.829677 z" />
    <path
       id="path2-2"
       style="fill:#bebebe;stroke:#000000;stroke-width:0.2032;stroke-dasharray:none"
       d="m 86.440014,49.964698 a 0.8296775,0.8296775 0 0 1 -0.829678,0.829678 0.8296775,0.8296775 0 0 1 -0.829677,-0.829678 0.8296775,0.8296775 0 0 1 0.829677,-0.829677 0.8296775,0.8296775 0 0 1 0.829678,0.829677 z" />
    <path
       id="rect1-2"
       style="fill:#bebebe;fill-opacity:1;stroke:#000000;stroke-width:0.207962"
       d="M 42.445916,0.67934923 H 58.545134 V 9.0785272 H 42.445916 Z"
       sodipodi:nodetypes="ccccc" />
    <path
       id="path2-2-0"
       style="fill:#bebebe;stroke:#000000;stroke-width:0.2032;stroke-dasharray:none"
       d="m 47.269287,4.9752599 a 0.8296775,0.8296775 0 0 1 -0.829678,0.829678 0.8296775,0.8296775 0 0 1 -0.829677,-0.829678 0.8296775,0.8296775 0 0 1 0.829677,-0.829677 0.8296775,0.8296775 0 0 1 0.829678,0.829677 z" />
    <path
       id="path2-2-2"
       style="fill:#bebebe;stroke:#000000;stroke-width:0.2032;stroke-dasharray:none"
       d="m 55.017438,4.9752599 a 0.8296775,0.8296775 0 0 1 -0.829678,0.829678 0.8296775,0.8296775 0 0 1 -0.829677,-0.829678 0.8296775,0.8296775 0 0 1 0.829677,-0.829677 0.8296775,0.8296775 0 0 1 0.829678,0.829677 z" />
    <path
       id="path2-2-0-3"
       style="fill:#bebebe;stroke:#000000;stroke-width:0.2032;stroke-dasharray:none"
       d="m 47.325079,94.518543 a 0.8296775,0.8296775 0 0 1 -0.829678,0.829678 0.8296775,0.8296775 0 0 1 -0.829677,-0.829678 0.8296775,0.8296775 0 0 1 0.829677,-0.829677 0.8296775,0.8296775 0 0 1 0.829678,0.829677 z" />
    <path
       id="path2-2-2-1"
       style="fill:#bebebe;stroke:#000000;stroke-width:0.2032;stroke-dasharray:none"
       d="m 55.07323,94.518543 a 0.8296775,0.8296775 0 0 1 -0.829678,0.829678 0.8296775,0.8296775 0 0 1 -0.829677,-0.829678 0.8296775,0.8296775 0 0 1 0.829677,-0.829677 0.8296775,0.8296775 0 0 1 0.829678,0.829677 z" />
    <path
       d="m 56.160142,4.7318399 c 2.881676,-1.4870424 5.775526,-1.9261574 8.68155,-1.3173449 2.879192,0.6042083 5.101633,2.0108139 6.667319,4.2198193 0.74398,1.0496703 1.468119,2.4537197 2.172415,4.2121537 0.715401,1.774099 1.3396,3.037151 1.872602,3.789152 0.821706,1.159337 2.013884,1.893735 3.576527,2.203196 1.558023,0.336188 3.357885,0.03271 3.959808,0.765577 0.60192,0.732867 -0.272598,2.275391 -0.534199,3.86806 -0.277328,1.603732 -0.02179,2.961765 0.766607,4.074099 0.577417,0.814672 1.582289,1.833427 3.014613,3.056272 1.427703,1.249574 2.524648,2.414863 3.290837,3.495865 1.565685,2.209005 2.147978,4.792804 1.746874,7.751396 -0.390001,2.974257 -1.779235,5.53621 -4.167706,7.685861"
       id="text3"
       style="font-size:38.0582px;font-family:Symbol;-inkscape-font-specification:Symbol;text-align:center;text-anchor:middle;fill:none;stroke:#000000;stroke-width:0.236373"
       aria-label="{"
       sodipodi:nodetypes="ccscscccscscc"
       inkscape:transform-center-x="-1.8849635"
       inkscape:transform-center-y="-1.0913948" />
    <text
       xml:space="preserve"
       style="font-size:4.23333px;font-family:Symbol;-inkscape-font-specification:Symbol;text-align:center;text-anchor:middle;fill:#000000;fill-opacity:1;stroke:#000000;stroke-width:0.1524;stroke-dasharray:none"
       x="85.548904"
       y="17.50057"
       id="text4"><tspan
         sodipodi:role="line"
         id="tspan3"
         style="font-style:normal;font-variant:normal;font-weight:normal;font-stretch:normal;font-size:4.23333px;font-family:'TeX Gyre Pagella';-inkscape-font-specification:'TeX Gyre Pagella';fill:#000000;fill-opacity:1;stroke:none;stroke-width:0.1524"
         x="85.548904"
         y="17.50057">arm</tspan></text>
    <text
       xml:space="preserve"
       style="font-style:normal;font-variant:normal;font-weight:normal;font-stretch:normal;font-size:4.23333px;font-family:'TeX Gyre Pagella';-inkscape-font-specification:'TeX Gyre Pagella';text-align:center;text-anchor:middle;fill:#000000;fill-opacity:1;stroke:none;stroke-width:0.1524;stroke-dasharray:none"
       x="27.100399"
       y="46.554916"
       id="text5"><tspan
         sodipodi:role="line"
         id="tspan4"
         style="font-style:normal;font-variant:normal;font-weight:normal;font-stretch:normal;font-size:4.23333px;font-family:Symbol;-inkscape-font-specification:Symbol;stroke-width:0.1524"
         x="27.100399"
         y="46.554916">a</tspan></text>
    <path
       style="fill:none;fill-opacity:1;stroke:#000000;stroke-width:0.1524;stroke-dasharray:none;stroke-opacity:1;marker-end:url(#Triangle)"
       d="m 25.401315,48.678774 c 0,0 1.359267,-3.568076 -2.803489,-4.927343"
       id="path5" />
  </g>
</svg>
