<?xml version="1.0" encoding="UTF-8" standalone="no"?>
<!-- Created with Inkscape (http://www.inkscape.org/) -->

<svg
   width="64mm"
   height="97mm"
   viewBox="0 0 64 97"
   version="1.1"
   id="svg65973"
   inkscape:version="1.3.2 (091e20e, 2023-11-25, custom)"
   sodipodi:docname="cone_tank.svg"
   xmlns:inkscape="http://www.inkscape.org/namespaces/inkscape"
   xmlns:sodipodi="http://sodipodi.sourceforge.net/DTD/sodipodi-0.dtd"
   xmlns="http://www.w3.org/2000/svg"
   xmlns:svg="http://www.w3.org/2000/svg">
  <sodipodi:namedview
     id="namedview65975"
     pagecolor="#ffffff"
     bordercolor="#666666"
     borderopacity="1.0"
     inkscape:pageshadow="2"
     inkscape:pageopacity="0.0"
     inkscape:pagecheckerboard="0"
     inkscape:document-units="mm"
     showgrid="false"
     inkscape:snap-bbox="false"
     inkscape:object-paths="true"
     inkscape:snap-intersection-paths="true"
     width="144mm"
     inkscape:zoom="2.1997092"
     inkscape:cx="63.190171"
     inkscape:cy="180.93301"
     inkscape:window-width="1920"
     inkscape:window-height="1112"
     inkscape:window-x="-8"
     inkscape:window-y="-8"
     inkscape:window-maximized="1"
     inkscape:current-layer="layer1"
     inkscape:snap-global="false"
     inkscape:showpageshadow="2"
     inkscape:deskcolor="#d1d1d1" />
  <defs
     id="defs65970">
    <marker
       style="overflow:visible"
       id="marker11"
       refX="0"
       refY="0"
       orient="auto-start-reverse"
       inkscape:stockid="Stylized triangle arrow"
       markerWidth="1"
       markerHeight="1"
       viewBox="0 0 1 1"
       inkscape:isstock="true"
       inkscape:collect="always"
       preserveAspectRatio="xMidYMid">
      <path
         transform="scale(0.5)"
         style="fill:context-stroke;fill-rule:evenodd;stroke:context-stroke;stroke-width:1pt"
         d="m 6,0 c -3,1 -7,3 -9,5 0,0 0,-4 2,-5 -2,-1 -2,-5 -2,-5 2,2 6,4 9,5 z"
         id="path11" />
    </marker>
    <marker
       style="overflow:visible"
       id="ArrowTriangleStylized"
       refX="0"
       refY="0"
       orient="auto-start-reverse"
       inkscape:stockid="Stylized triangle arrow"
       markerWidth="1"
       markerHeight="1"
       viewBox="0 0 1 1"
       inkscape:isstock="true"
       inkscape:collect="always"
       preserveAspectRatio="xMidYMid">
      <path
         transform="scale(0.5)"
         style="fill:context-stroke;fill-rule:evenodd;stroke:context-stroke;stroke-width:1pt"
         d="m 6,0 c -3,1 -7,3 -9,5 0,0 0,-4 2,-5 -2,-1 -2,-5 -2,-5 2,2 6,4 9,5 z"
         id="path10" />
    </marker>
    <inkscape:path-effect
       effect="spiro"
       id="path-effect936"
       is_visible="true"
       lpeversion="1" />
    <inkscape:path-effect
       effect="spiro"
       id="path-effect74164"
       is_visible="true"
       lpeversion="1" />
    <inkscape:path-effect
       effect="spiro"
       id="path-effect70754"
       is_visible="true"
       lpeversion="1" />
    <inkscape:path-effect
       effect="spiro"
       id="path-effect70701"
       is_visible="true"
       lpeversion="1" />
    <marker
       style="overflow:visible"
       id="Arrow1Mstart"
       refX="0"
       refY="0"
       orient="auto"
       inkscape:stockid="Arrow1Mstart"
       inkscape:isstock="true">
      <path
         transform="matrix(0.4,0,0,0.4,4,0)"
         style="fill:context-stroke;fill-rule:evenodd;stroke:context-stroke;stroke-width:1pt"
         d="M 0,0 5,-5 -12.5,0 5,5 Z"
         id="path67873" />
    </marker>
    <marker
       style="overflow:visible"
       id="marker70579"
       refX="0"
       refY="0"
       orient="auto"
       inkscape:stockid="Arrow1Mend"
       inkscape:isstock="true">
      <path
         transform="matrix(-0.4,0,0,-0.4,-4,0)"
         style="fill:context-stroke;fill-rule:evenodd;stroke:context-stroke;stroke-width:1pt"
         d="M 0,0 5,-5 -12.5,0 5,5 Z"
         id="path70577" />
    </marker>
    <inkscape:path-effect
       effect="spiro"
       id="path-effect70556"
       is_visible="true"
       lpeversion="1" />
    <inkscape:path-effect
       effect="spiro"
       id="path-effect70518"
       is_visible="true"
       lpeversion="1" />
    <inkscape:path-effect
       effect="spiro"
       id="path-effect70391"
       is_visible="true"
       lpeversion="1" />
    <inkscape:path-effect
       effect="spiro"
       id="path-effect68137"
       is_visible="true"
       lpeversion="1" />
    <marker
       style="overflow:visible"
       id="Arrow1Mend"
       refX="0"
       refY="0"
       orient="auto"
       inkscape:stockid="Arrow1Mend"
       inkscape:isstock="true">
      <path
         transform="matrix(-0.4,0,0,-0.4,-4,0)"
         style="fill:context-stroke;fill-rule:evenodd;stroke:context-stroke;stroke-width:1pt"
         d="M 0,0 5,-5 -12.5,0 5,5 Z"
         id="path67876" />
    </marker>
    <inkscape:path-effect
       effect="spiro"
       id="path-effect67865"
       is_visible="true"
       lpeversion="1" />
    <inkscape:path-effect
       effect="spiro"
       id="path-effect67667"
       is_visible="true"
       lpeversion="1" />
    <inkscape:path-effect
       effect="spiro"
       id="path-effect67479"
       is_visible="true"
       lpeversion="1" />
    <inkscape:path-effect
       effect="spiro"
       id="path-effect66867"
       is_visible="true"
       lpeversion="1" />
    <inkscape:path-effect
       effect="spiro"
       id="path-effect66511"
       is_visible="true"
       lpeversion="1" />
    <marker
       style="overflow:visible"
       id="Arrow1Mstart-0"
       refX="0"
       refY="0"
       orient="auto"
       inkscape:stockid="Arrow1Mstart"
       inkscape:isstock="true">
      <path
         transform="matrix(0.4,0,0,0.4,4,0)"
         style="fill:context-stroke;fill-rule:evenodd;stroke:context-stroke;stroke-width:1pt"
         d="M 0,0 5,-5 -12.5,0 5,5 Z"
         id="path67873-6" />
    </marker>
    <marker
       style="overflow:visible"
       id="marker70579-5"
       refX="0"
       refY="0"
       orient="auto"
       inkscape:stockid="Arrow1Mend"
       inkscape:isstock="true">
      <path
         transform="matrix(-0.4,0,0,-0.4,-4,0)"
         style="fill:context-stroke;fill-rule:evenodd;stroke:context-stroke;stroke-width:1pt"
         d="M 0,0 5,-5 -12.5,0 5,5 Z"
         id="path70577-9" />
    </marker>
    <marker
       style="overflow:visible"
       id="Arrow1Mend-7"
       refX="0"
       refY="0"
       orient="auto"
       inkscape:stockid="Arrow1Mend"
       inkscape:isstock="true">
      <path
         transform="matrix(-0.4,0,0,-0.4,-4,0)"
         style="fill:context-stroke;fill-rule:evenodd;stroke:context-stroke;stroke-width:1pt"
         d="M 0,0 5,-5 -12.5,0 5,5 Z"
         id="path67876-9" />
    </marker>
    <inkscape:path-effect
       effect="spiro"
       id="path-effect70391-9"
       is_visible="true"
       lpeversion="1" />
    <marker
       style="overflow:visible"
       id="Arrow1Mend-0"
       refX="0"
       refY="0"
       orient="auto"
       inkscape:stockid="Arrow1Mend"
       inkscape:isstock="true">
      <path
         transform="matrix(-0.4,0,0,-0.4,-4,0)"
         style="fill:context-stroke;fill-rule:evenodd;stroke:context-stroke;stroke-width:1pt"
         d="M 0,0 5,-5 -12.5,0 5,5 Z"
         id="path67876-4" />
    </marker>
    <inkscape:path-effect
       effect="spiro"
       id="path-effect67865-2"
       is_visible="true"
       lpeversion="1" />
  </defs>
  <g
     inkscape:label="Layer 1"
     inkscape:groupmode="layer"
     id="layer1"
     style="display:inline">
    <path
       id="path66509-7-1"
       style="fill:#737373;fill-opacity:0.224907;stroke:#000000;stroke-width:0.265;stroke-linecap:butt;stroke-linejoin:miter;stroke-dasharray:none;stroke-opacity:1"
       d="m 1.1688335,21.45617 0.057849,0.140652 A 24.111684,17.336844 0 0 1 1.1875175,21.45617 Z m 47.2245115,0 a 24.111684,17.336844 0 0 1 -0.03915,0.140652 l 0.05785,-0.140652 z M 2.2421792,24.08207 24.790432,79.251081 47.335124,24.090133 A 24.111684,17.336844 0 0 1 24.790432,35.315839 24.111684,17.336844 0 0 1 2.2421792,24.08207 Z"
       inkscape:label="cone" />
    <path
       id="path66509-7"
       style="fill:#0000d7;fill-opacity:0.766187;stroke:none;stroke-width:0.366134;stroke-linecap:butt;stroke-linejoin:miter;stroke-dasharray:none;stroke-opacity:1"
       d="m 5.8363484,33.181682 0.04642,0.112118 a 19.347331,13.819522 0 0 1 -0.031425,-0.112118 z m 37.8931736,0 a 19.347331,13.819522 0 0 1 -0.03141,0.112118 l 0.04642,-0.112118 z M 6.6976058,35.274836 24.790432,79.251081 42.880403,35.281262 A 19.347331,13.819522 0 0 1 24.790432,44.229482 19.347331,13.819522 0 0 1 6.6976058,35.274836 Z"
       inkscape:label="filledcone" />
    <path
       id="path66056"
       style="fill:#0000d7;fill-opacity:0.766187;stroke-width:0.366134;stroke-opacity:0.77"
       d="M 44.186329,30.622555 A 19.34733,13.819522 0 0 1 24.838999,44.442077 19.34733,13.819522 0 0 1 5.4916687,30.622555 19.34733,13.819522 0 0 1 24.838999,16.803033 19.34733,13.819522 0 0 1 44.186329,30.622555 Z"
       inkscape:label="filledtop" />
    <path
       id="path66056-3"
       style="fill:#737373;fill-opacity:0.22;stroke:#000000;stroke-width:0.265;stroke-dasharray:none"
       d="M 48.962643,17.828634 A 24.111685,17.336845 0 0 1 24.850958,35.16548 24.111685,17.336845 0 0 1 0.73927307,17.828634 24.111685,17.336845 0 0 1 24.850958,0.49178886 24.111685,17.336845 0 0 1 48.962643,17.828634 Z"
       inkscape:label="conetop" />
    <text
       xml:space="preserve"
       style="display:inline;font-size:4.87522px;line-height:1.25;font-family:sans-serif;letter-spacing:0px;word-spacing:0px;stroke-width:0.36564"
       x="25.476904"
       y="10.688361"
       id="text69732"><tspan
         sodipodi:role="line"
         id="tspan69730"
         style="stroke-width:0.36564"
         x="25.476904"
         y="10.688361">1.4 m</tspan></text>
    <text
       xml:space="preserve"
       style="font-size:4.87522px;line-height:1.25;font-family:sans-serif;letter-spacing:0px;word-spacing:0px;stroke-width:0.36564"
       x="56.949833"
       y="-47.881886"
       id="text72017"
       transform="rotate(90)"><tspan
         sodipodi:role="line"
         id="tspan72015"
         style="stroke-width:0.36564"
         x="56.949833"
         y="-47.881886">3.6 m</tspan></text>
    <text
       xml:space="preserve"
       style="font-size:4.87522px;line-height:1.25;font-family:sans-serif;letter-spacing:0px;word-spacing:0px;stroke-width:0.36564"
       x="51.655014"
       y="-59.609577"
       id="text73849"
       transform="rotate(90)"><tspan
         sodipodi:role="line"
         id="tspan73847"
         style="stroke-width:0.36564"
         x="51.655014"
         y="-59.609577">4.0 m</tspan></text>
    <path
       style="fill:#000000;stroke:#000000;stroke-width:0.265;stroke-dasharray:none;stroke-opacity:1"
       d="m 24.790432,79.251081 c 0,0 0.376841,-61.479828 0,-61.422445"
       id="path1"
       sodipodi:nodetypes="cc" />
    <path
       style="fill:#000000;stroke:#000000;stroke-width:0.265;stroke-dasharray:none;stroke-opacity:1;marker-end:url(#ArrowTriangleStylized)"
       d="M 24.949028,27.278533 37.76824,21.628143"
       id="path2"
       sodipodi:nodetypes="cc" />
    <path
       style="fill:#000000;stroke:#000000;stroke-width:0.265;stroke-dasharray:none;stroke-opacity:1;marker-end:url(#ArrowTriangleStylized)"
       d="M 24.850958,17.828634 44.393788,9.2903428"
       id="path3"
       sodipodi:nodetypes="cc" />
    <path
       style="fill:#000000;stroke:#000000;stroke-width:0.265;stroke-dasharray:none;stroke-opacity:1"
       d="M 24.790432,79.251079 61.351641,96.621628"
       id="path4" />
    <path
       style="fill:#000000;stroke:#000000;stroke-width:0.265;stroke-dasharray:none;stroke-opacity:1"
       d="m 48.962643,17.828634 14.37038,6.9011"
       id="path5" />
    <path
       style="fill:#000000;stroke:#000000;stroke-width:0.265;stroke-dasharray:none;stroke-opacity:1"
       d="m 42.1334,36.817384 9.097037,4.321173"
       id="path6" />
    <path
       style="fill:#000000;stroke:#000000;stroke-width:0.263158;stroke-dasharray:none;stroke-opacity:1;marker-start:url(#marker11);marker-end:url(#ArrowTriangleStylized)"
       d="M 58.11244,93.819109 V 23.316901"
       id="path8" />
    <path
       style="fill:#000000;stroke:#000000;stroke-width:0.264499;stroke-dasharray:none;stroke-opacity:1;marker-start:url(#marker11);marker-end:url(#ArrowTriangleStylized)"
       d="M 45.906793,88.085141 46.289761,39.981069"
       id="path9" />
  </g>
</svg>
