<?xml version="1.0" encoding="UTF-8" standalone="no"?>
<!-- Created with Inkscape (http://www.inkscape.org/) -->

<svg
   width="192mm"
   height="290mm"
   viewBox="0 0 192 290"
   version="1.1"
   id="svg65973"
   xmlns="http://www.w3.org/2000/svg"
   xmlns:svg="http://www.w3.org/2000/svg">
  <defs
     id="defs65970">
    <marker
       style="overflow:visible"
       id="Arrow1Mstart"
       refX="0"
       refY="0"
       orient="auto">
      <path
         transform="matrix(0.4,0,0,0.4,4,0)"
         style="fill:context-stroke;fill-rule:evenodd;stroke:context-stroke;stroke-width:1pt"
         d="M 0,0 5,-5 -12.5,0 5,5 Z"
         id="path67873" />
    </marker>
    <marker
       style="overflow:visible"
       id="marker70579"
       refX="0"
       refY="0"
       orient="auto">
      <path
         transform="matrix(-0.4,0,0,-0.4,-4,0)"
         style="fill:context-stroke;fill-rule:evenodd;stroke:context-stroke;stroke-width:1pt"
         d="M 0,0 5,-5 -12.5,0 5,5 Z"
         id="path70577" />
    </marker>
    <marker
       style="overflow:visible"
       id="Arrow1Mend"
       refX="0"
       refY="0"
       orient="auto">
      <path
         transform="matrix(-0.4,0,0,-0.4,-4,0)"
         style="fill:context-stroke;fill-rule:evenodd;stroke:context-stroke;stroke-width:1pt"
         d="M 0,0 5,-5 -12.5,0 5,5 Z"
         id="path67876" />
    </marker>
    <marker
       style="overflow:visible"
       id="Arrow1Mstart-0"
       refX="0"
       refY="0"
       orient="auto">
      <path
         transform="matrix(0.4,0,0,0.4,4,0)"
         style="fill:context-stroke;fill-rule:evenodd;stroke:context-stroke;stroke-width:1pt"
         d="M 0,0 5,-5 -12.5,0 5,5 Z"
         id="path67873-6" />
    </marker>
    <marker
       style="overflow:visible"
       id="marker70579-5"
       refX="0"
       refY="0"
       orient="auto">
      <path
         transform="matrix(-0.4,0,0,-0.4,-4,0)"
         style="fill:context-stroke;fill-rule:evenodd;stroke:context-stroke;stroke-width:1pt"
         d="M 0,0 5,-5 -12.5,0 5,5 Z"
         id="path70577-9" />
    </marker>
    <marker
       style="overflow:visible"
       id="Arrow1Mend-7"
       refX="0"
       refY="0"
       orient="auto">
      <path
         transform="matrix(-0.4,0,0,-0.4,-4,0)"
         style="fill:context-stroke;fill-rule:evenodd;stroke:context-stroke;stroke-width:1pt"
         d="M 0,0 5,-5 -12.5,0 5,5 Z"
         id="path67876-9" />
    </marker>
    <marker
       style="overflow:visible"
       id="Arrow1Mend-0"
       refX="0"
       refY="0"
       orient="auto">
      <path
         transform="matrix(-0.4,0,0,-0.4,-4,0)"
         style="fill:context-stroke;fill-rule:evenodd;stroke:context-stroke;stroke-width:1pt"
         d="M 0,0 5,-5 -12.5,0 5,5 Z"
         id="path67876-4" />
    </marker>
  </defs>
  <g
     id="layer1">
    <path
       id="path66509-7"
       style="fill:#0000d7;fill-opacity:0.766187;stroke:none;stroke-width:0.825157px;stroke-linecap:butt;stroke-linejoin:miter;stroke-opacity:1"
       d="m 17.372508,100.30794 0.138321,0.33409 a 57.650888,41.179206 0 0 1 -0.09364,-0.33409 z m 112.913512,0 a 57.650888,41.179206 0 0 1 -0.0936,0.33409 l 0.13832,-0.33409 z M 19.93887,106.54509 73.851603,237.58485 127.75583,106.56424 A 57.650888,41.179206 0 0 1 73.851603,133.22801 57.650888,41.179206 0 0 1 19.93887,106.54509 Z" />
    <ellipse
       style="fill:#0000d7;fill-opacity:0.766187;stroke:#0000d7;stroke-width:0.411792;stroke-miterlimit:4;stroke-dasharray:none;stroke-dashoffset:0;stroke-opacity:0.77"
       id="path66056"
       cx="73.996323"
       cy="92.682289"
       rx="57.650887"
       ry="41.179207" />
    <path
       id="path66509-7-1"
       style="fill:#737373;fill-opacity:0.22;stroke:#000000;stroke-width:1.03176px;stroke-linecap:butt;stroke-linejoin:miter;stroke-opacity:1"
       d="m 3.4643166,65.368435 0.1723762,0.419113 A 71.847637,51.660071 0 0 1 3.5199909,65.368435 Z m 140.7188934,0 a 71.847637,51.660071 0 0 1 -0.11667,0.419113 l 0.17237,-0.419113 z M 6.6626561,73.193052 73.851603,237.58485 141.02994,73.21708 A 71.847637,51.660071 0 0 1 73.851603,106.66727 71.847637,51.660071 0 0 1 6.6626561,73.193052 Z" />
    <ellipse
       style="fill:#737373;fill-opacity:0.22;stroke:#000000;stroke-width:1.09125;stroke-miterlimit:4;stroke-dasharray:none;stroke-dashoffset:0;stroke-opacity:1"
       id="path66056-3"
       cx="74.03196"
       cy="54.559155"
       rx="71.847641"
       ry="51.660072" />
  </g>
  <g
     id="layer2">
    <path
       style="fill:none;stroke:#000000;stroke-width:1.09125;stroke-linecap:butt;stroke-linejoin:miter;stroke-miterlimit:4;stroke-dasharray:none;stroke-opacity:1"
       d="M 73.853765,237.58131 72.90904,54.730149"
       id="path67477-4" />
    <path
       style="fill:none;stroke:#000000;stroke-width:1.091;stroke-linecap:butt;stroke-linejoin:miter;stroke-miterlimit:4;stroke-dasharray:none;stroke-opacity:1;marker-end:url(#Arrow1Mend)"
       d="M 72.369111,54.584482 133.01018,28.381903"
       id="path67863" />
    <path
       style="fill:none;stroke:#000000;stroke-width:1.091;stroke-linecap:butt;stroke-linejoin:miter;stroke-miterlimit:4;stroke-dasharray:none;stroke-opacity:1;marker-end:url(#Arrow1Mend-0)"
       d="M 73.22276,83.193743 114.17001,65.500727"
       id="path67863-3" />
    <text
       xml:space="preserve"
       style="font-size:14.5271px;line-height:1.25;font-family:sans-serif;letter-spacing:0px;word-spacing:0px;stroke-width:1.08953"
       x="144.71219"
       y="28.981739"
       id="text69732"><tspan
         id="tspan69730"
         style="stroke-width:1.08953"
         x="144.71219"
         y="28.981739">1.4 m</tspan></text>
    <path
       style="fill:none;stroke:#000000;stroke-width:1.091;stroke-linecap:butt;stroke-linejoin:miter;stroke-miterlimit:4;stroke-dasharray:none;stroke-opacity:1"
       d="m 125.53174,111.13971 27.1054,12.87801"
       id="path70389" />
    <path
       style="fill:none;stroke:#000000;stroke-width:1.091;stroke-linecap:butt;stroke-linejoin:miter;stroke-miterlimit:4;stroke-dasharray:none;stroke-opacity:1"
       d="m 73.851603,237.58485 108.944547,51.7605"
       id="path70389-1" />
    <path
       style="fill:none;stroke:#000000;stroke-width:1.09125;stroke-linecap:butt;stroke-linejoin:miter;stroke-miterlimit:4;stroke-dasharray:none;stroke-opacity:1"
       d="m 146.01419,54.842445 42.68606,20.280507"
       id="path70389-9" />
    <path
       style="fill:none;stroke:#000000;stroke-width:1.091;stroke-linecap:butt;stroke-linejoin:miter;stroke-miterlimit:4;stroke-dasharray:none;stroke-opacity:1;marker-start:url(#Arrow1Mstart);marker-end:url(#marker70579)"
       d="M 136.78729,264.64413 V 119.36387"
       id="path70554" />
    <path
       style="fill:none;stroke:#000000;stroke-width:1.091;stroke-linecap:butt;stroke-linejoin:miter;stroke-miterlimit:4;stroke-dasharray:none;stroke-opacity:1;marker-start:url(#Arrow1Mstart-0);marker-end:url(#marker70579-5)"
       d="M 173.14403,281.6654 V 70.390525"
       id="path70554-3" />
    <text
       xml:space="preserve"
       style="font-size:14.5271px;line-height:1.25;font-family:sans-serif;letter-spacing:0px;word-spacing:0px;stroke-width:1.08953"
       x="112.02188"
       y="177.07877"
       id="text72017"><tspan
         id="tspan72015"
         style="stroke-width:1.08953"
         x="112.02188"
         y="177.07877">3.6 m</tspan></text>
    <text
       xml:space="preserve"
       style="font-size:14.5271px;line-height:1.25;font-family:sans-serif;letter-spacing:0px;word-spacing:0px;stroke-width:1.08953"
       x="147.88332"
       y="154.78993"
       id="text73849"><tspan
         id="tspan73847"
         style="stroke-width:1.08953"
         x="147.88332"
         y="154.78993">4.0 m</tspan></text>
  </g>
</svg>
