<?xml version="1.0" encoding="UTF-8" standalone="no"?>
<svg
   width="2284px"
   height="1432px"
   xml:space="preserve"
   overflow="hidden"
   version="1.1"
   xmlns="http://www.w3.org/2000/svg"
   xmlns:svg="http://www.w3.org/2000/svg">
<path
     d="m 207.5,1200.54 h 2003 m -2003,-26 h 2003 m -2003,-27 h 2003 m -2003,-26 h 2003 m -2003,-53 h 2003 m -2003,-26.01 h 2003 m -2003,-27 h 2003 m -2003,-26 h 2003 m -2003,-52.999 h 2003 m -2003,-26 h 2003 M 207.5,883.53 h 2003 m -2003,-26.001 h 2003 m -2003,-53.002 h 2003 m -2003,-26.001 h 2003 m -2003,-27.001 h 2003 m -2003,-26.001 h 2003 m -2003,-53.001 h 2003 m -2003,-26.001 h 2003 m -2003,-27.001 h 2003 M 207.5,593.52 h 2003 m -2003,-53.002 h 2003 m -2003,-26 h 2003 m -2003,-27.001 h 2003 m -2003,-26.001 h 2003 m -2003,-53.002 h 2003 m -2003,-26.001 h 2003 m -2003,-27.001 h 2003 m -2003,-26.001 h 2003 M 207.5,276.51 h 2003 m -2003,-26.001 h 2003 m -2003,-27.001 h 2003 m -2003,-26.001 h 2003"
     stroke="#f2f2f2"
     stroke-width="3.4375"
     stroke-linejoin="round"
     stroke-miterlimit="10"
     fill="none" />
<path
     d="m 207.5,1094.54 h 2003 M 207.5,962.532 h 2003 M 207.5,830.528 h 2003 M 207.5,698.524 h 2003 M 207.5,566.519 h 2003 M 207.5,434.515 h 2003 M 207.5,302.511 h 2003 M 207.5,170.5 h 2003"
     stroke="#d9d9d9"
     stroke-width="3.4375"
     stroke-linejoin="round"
     stroke-miterlimit="10"
     fill="none" />
<path
     d="m 287.55,170.5 v 1056 m 80,-1056 v 1056 m 80,-1056 v 1056 m 81.01,-1056 v 1056 m 160,-1056 v 1056 m 80,-1056 v 1056 m 80.01,-1056 v 1056 m 80,-1056 v 1056 m 160,-1056 v 1056 m 80.01,-1056 v 1056 m 81,-1056 v 1056 m 80,-1056 v 1056 m 160.01,-1056 v 1056 m 80,-1056 v 1056 m 80,-1056 v 1056 m 80.01,-1056 v 1056 m 160,-1056 v 1056 m 81,-1056 v 1056 m 80.01,-1056 v 1056 m 80,-1056 v 1056"
     stroke="#f2f2f2"
     stroke-width="3.4375"
     stroke-linejoin="round"
     stroke-miterlimit="10"
     fill="none" />
<path
     d="m 608.56,170.5 v 1056 m 400.01,-1056 v 1056 m 401.01,-1056 v 1056 m 400.02,-1056 v 1056 m 400.9,-1056 v 1056"
     stroke="#d9d9d9"
     stroke-width="3.4375"
     stroke-linejoin="round"
     stroke-miterlimit="10"
     fill="none" />
<path
     d="m 207.5,1226.5 3.6e-4,-1056"
     stroke="#bfbfbf"
     stroke-width="3.4375"
     stroke-linejoin="round"
     stroke-miterlimit="10"
     fill="none"
     fill-rule="evenodd" />
<path
     d="m 207.5,1226.5 h 2003"
     stroke="#bfbfbf"
     stroke-width="3.4375"
     stroke-linejoin="round"
     stroke-miterlimit="10"
     fill="none"
     fill-rule="evenodd" />
<path
     d="m 1340.25,500.312 c 0,6.075 -4.93,10.999 -11,10.999 -6.08,0 -11,-4.924 -11,-10.999 0,-6.075 4.92,-11 11,-11 6.07,0 11,4.925 11,11 z"
     stroke="#156082"
     stroke-width="3.4375"
     stroke-linejoin="round"
     stroke-miterlimit="10"
     fill="#156082" />
<path
     d="m 1019.25,830.312 c 0,6.075 -4.93,10.999 -11,10.999 -6.08,0 -11,-4.924 -11,-10.999 0,-6.075 4.92,-11 11,-11 6.07,0 11,4.925 11,11 z"
     stroke="#156082"
     stroke-width="3.4375"
     stroke-linejoin="round"
     stroke-miterlimit="10"
     fill="#156082" />
<path
     d="m 859.25,896.312 c 0,6.075 -4.93,10.999 -11,10.999 -6.08,0 -11,-4.924 -11,-10.999 0,-6.075 4.92,-11 11,-11 6.07,0 11,4.925 11,11 z"
     stroke="#156082"
     stroke-width="3.4375"
     stroke-linejoin="round"
     stroke-miterlimit="10"
     fill="#156082" />
<path
     d="m 1260.25,698.312 c 0,6.075 -4.93,10.999 -11,10.999 -6.08,0 -11,-4.924 -11,-10.999 0,-6.075 4.92,-11 11,-11 6.07,0 11,4.925 11,11 z"
     stroke="#156082"
     stroke-width="3.4375"
     stroke-linejoin="round"
     stroke-miterlimit="10"
     fill="#156082" />
<path
     d="m 1660.25,302.312 c 0,6.075 -4.93,10.999 -11,10.999 -6.08,0 -11,-4.924 -11,-10.999 0,-6.075 4.92,-11 11,-11 6.07,0 11,4.925 11,11 z"
     stroke="#156082"
     stroke-width="3.4375"
     stroke-linejoin="round"
     stroke-miterlimit="10"
     fill="#156082" />
<path
     d="m 779.25,962.312 c 0,6.075 -4.93,10.999 -11,10.999 -6.08,0 -11,-4.924 -11,-10.999 0,-6.075 4.92,-11 11,-11 6.07,0 11,4.925 11,11 z"
     stroke="#156082"
     stroke-width="3.4375"
     stroke-linejoin="round"
     stroke-miterlimit="10"
     fill="#156082" />
<path
     d="m 539.25,1028.31 c 0,6.08 -4.93,11 -11,11 -6.08,0 -11,-4.92 -11,-11 0,-6.07 4.92,-11 11,-11 6.07,0 11,4.93 11,11 z"
     stroke="#156082"
     stroke-width="3.4375"
     stroke-linejoin="round"
     stroke-miterlimit="10"
     fill="#156082" />
<path
     d="m 1420.25,500.312 c 0,6.075 -4.93,10.999 -11,10.999 -6.08,0 -11,-4.924 -11,-10.999 0,-6.075 4.92,-11 11,-11 6.07,0 11,4.925 11,11 z"
     stroke="#156082"
     stroke-width="3.4375"
     stroke-linejoin="round"
     stroke-miterlimit="10"
     fill="#156082" />
<path
     d="m 1901.25,236.312 c 0,6.075 -4.93,10.999 -11,10.999 -6.08,0 -11,-4.924 -11,-10.999 0,-6.075 4.92,-11 11,-11 6.07,0 11,4.925 11,11 z"
     stroke="#156082"
     stroke-width="3.4375"
     stroke-linejoin="round"
     stroke-miterlimit="10"
     fill="#156082" />
<path
     d="m 378.25,1094.31 c 0,6.08 -4.93,11 -11,11 -6.08,0 -11,-4.92 -11,-11 0,-6.07 4.92,-11 11,-11 6.07,0 11,4.93 11,11 z"
     stroke="#156082"
     stroke-width="3.4375"
     stroke-linejoin="round"
     stroke-miterlimit="10"
     fill="#156082" />
<path
     d="m 619.25,896.312 c 0,6.075 -4.93,10.999 -11,10.999 -6.08,0 -11,-4.924 -11,-10.999 0,-6.075 4.92,-11 11,-11 6.07,0 11,4.925 11,11 z"
     stroke="#156082"
     stroke-width="3.4375"
     stroke-linejoin="round"
     stroke-miterlimit="10"
     fill="#156082" />
<path
     d="m 1180.25,764.312 c 0,6.075 -4.93,10.999 -11,10.999 -6.08,0 -11,-4.924 -11,-10.999 0,-6.075 4.92,-11 11,-11 6.07,0 11,4.925 11,11 z"
     stroke="#156082"
     stroke-width="3.4375"
     stroke-linejoin="round"
     stroke-miterlimit="10"
     fill="#156082" />
<path
     d="m 1260.25,632.312 c 0,6.075 -4.93,10.999 -11,10.999 -6.08,0 -11,-4.924 -11,-10.999 0,-6.075 4.92,-11 11,-11 6.07,0 11,4.925 11,11 z"
     stroke="#156082"
     stroke-width="3.4375"
     stroke-linejoin="round"
     stroke-miterlimit="10"
     fill="#156082" />
<path
     d="m 367.5,1139.5 1523,-895"
     stroke="#156082"
     stroke-width="6.875"
     stroke-linecap="round"
     stroke-linejoin="round"
     stroke-miterlimit="10"
     stroke-dasharray="0, 13.75"
     fill="none"
     fill-rule="evenodd" />
<text
     fill="#595959"
     font-family="Tex Gyre Pagella"
     font-weight="400"
     font-stretch="semi-condensed"
     font-size="41px"
     x="127.73"
     y="1239">68</text><text
     fill="#595959"
     font-family="Tex Gyre Pagella"
     font-weight="400"
     font-stretch="semi-condensed"
     font-size="41px"
     x="127.73"
     y="1107">70</text><text
     fill="#595959"
     font-family="Tex Gyre Pagella"
     font-weight="400"
     font-stretch="semi-condensed"
     font-size="41px"
     x="127.73"
     y="974">72</text><text
     fill="#595959"
     font-family="Tex Gyre Pagella"
     font-weight="400"
     font-stretch="semi-condensed"
     font-size="41px"
     x="127.73"
     y="842">74</text><text
     fill="#595959"
     font-family="Tex Gyre Pagella"
     font-weight="400"
     font-stretch="semi-condensed"
     font-size="41px"
     x="127.73"
     y="710">76</text><text
     fill="#595959"
     font-family="Tex Gyre Pagella"
     font-weight="400"
     font-stretch="semi-condensed"
     font-size="41px"
     x="127.73"
     y="578">78</text><text
     fill="#595959"
     font-family="Tex Gyre Pagella"
     font-weight="400"
     font-stretch="semi-condensed"
     font-size="41px"
     x="127.73"
     y="446">80</text><text
     fill="#595959"
     font-family="Tex Gyre Pagella"
     font-weight="400"
     font-stretch="semi-condensed"
     font-size="41px"
     x="127.73"
     y="314">82</text><text
     fill="#595959"
     font-family="Tex Gyre Pagella"
     font-weight="400"
     font-stretch="semi-condensed"
     font-size="41px"
     x="127.73"
     y="182">84</text><text
     fill="#595959"
     font-family="Tex Gyre Pagella"
     font-weight="400"
     font-stretch="semi-condensed"
     font-size="41px"
     x="186.71001"
     y="1292">30</text><text
     fill="#595959"
     font-family="Tex Gyre Pagella"
     font-weight="400"
     font-stretch="semi-condensed"
     font-size="41px"
     x="587.29999"
     y="1292">35</text><text
     fill="#595959"
     font-family="Tex Gyre Pagella"
     font-weight="400"
     font-stretch="semi-condensed"
     font-size="41px"
     x="987.89001"
     y="1292">40</text><text
     fill="#595959"
     font-family="Tex Gyre Pagella"
     font-weight="400"
     font-stretch="semi-condensed"
     font-size="41px"
     x="1388.48"
     y="1292">45</text><text
     fill="#595959"
     font-family="Tex Gyre Pagella"
     font-weight="400"
     font-stretch="semi-condensed"
     font-size="41px"
     x="1789.0699"
     y="1292">50</text><text
     fill="#595959"
     font-family="Tex Gyre Pagella"
     font-weight="400"
     font-stretch="semi-condensed"
     font-size="41px"
     x="2189.6599"
     y="1292">55</text><text
     fill="#595959"
     font-family="Tex Gyre Pagella"
     font-weight="400"
     font-stretch="semi-condensed"
     font-size="46px"
     transform="rotate(-90)"
     x="-916"
     y="101.03"><tspan
       style="font-style:normal;font-variant:normal;font-weight:normal;font-stretch:normal;font-family:'TeX Gyre Pagella';-inkscape-font-specification:'TeX Gyre Pagella'"
       id="tspan101">Current temperature (F)</tspan></text><text
     fill="#595959"
     font-family="Tex Gyre Pagella"
     font-weight="400"
     font-stretch="semi-condensed"
     font-size="46px"
     x="951.91998"
     y="1360"><tspan
       style="font-style:normal;font-variant:normal;font-weight:normal;font-stretch:normal;font-family:'TeX Gyre Pagella';-inkscape-font-specification:'TeX Gyre Pagella'"
       id="tspan102">Cricket chirps in 15 seconds</tspan></text><text
     fill="#595959"
     font-family="Tex Gyre Pagella"
     font-weight="400"
     font-stretch="semi-condensed"
     font-size="64px"
     x="502.57999"
     y="95"><tspan
       style="font-style:normal;font-variant:normal;font-weight:normal;font-stretch:normal;font-family:'TeX Gyre Pagella';-inkscape-font-specification:'TeX Gyre Pagella'"
       id="tspan100">Current temperature as predicted by cricket chirps</tspan></text><text
     fill="#595959"
     font-family="Tex Gyre Pagella"
     font-weight="400"
     font-stretch="semi-condensed"
     font-size="64px"
     x="733.00409"
     y="234.51599"
     style="font-size:48px"><tspan
       style="font-style:normal;font-variant:normal;font-weight:bold;font-stretch:normal;font-family:'TeX Gyre Pagella';-inkscape-font-specification:'TeX Gyre Pagella Bold'"
       id="tspan99">Current temperature (F) = 0.714 chirps + 46.5</tspan></text></svg>
