<?xml version="1.0" encoding="UTF-8" standalone="no"?>
<!-- Created with Inkscape (http://www.inkscape.org/) -->

<svg
   width="5in"
   height="2in"
   viewBox="0 0 127 50.8"
   version="1.1"
   id="svg1"
   inkscape:version="1.3.2 (091e20e, 2023-11-25, custom)"
   sodipodi:docname="hydraulic_piston_closed.svg"
   inkscape:export-filename="hydraulic_piston_closed.png"
   inkscape:export-xdpi="144"
   inkscape:export-ydpi="144"
   xmlns:inkscape="http://www.inkscape.org/namespaces/inkscape"
   xmlns:sodipodi="http://sodipodi.sourceforge.net/DTD/sodipodi-0.dtd"
   xmlns="http://www.w3.org/2000/svg"
   xmlns:svg="http://www.w3.org/2000/svg">
  <sodipodi:namedview
     id="namedview1"
     pagecolor="#ffffff"
     bordercolor="#000000"
     borderopacity="0.25"
     inkscape:showpageshadow="2"
     inkscape:pageopacity="0.0"
     inkscape:pagecheckerboard="0"
     inkscape:deskcolor="#d1d1d1"
     inkscape:document-units="in"
     inkscape:zoom="2.2022289"
     inkscape:cx="278.35435"
     inkscape:cy="112.15909"
     inkscape:window-width="1920"
     inkscape:window-height="1112"
     inkscape:window-x="-8"
     inkscape:window-y="1342"
     inkscape:window-maximized="1"
     inkscape:current-layer="layer1"
     showgrid="false" />
  <defs
     id="defs1">
    <marker
       style="overflow:visible"
       id="marker4"
       refX="0"
       refY="0"
       orient="auto"
       inkscape:stockid="Stop"
       markerWidth="1"
       markerHeight="1"
       viewBox="0 0 1 1"
       inkscape:isstock="true"
       inkscape:collect="always"
       preserveAspectRatio="xMidYMid">
      <path
         style="fill:none;stroke:context-stroke;stroke-width:1"
         d="M 0,4 V -4"
         id="path4" />
    </marker>
    <marker
       style="overflow:visible"
       id="Stop"
       refX="0"
       refY="0"
       orient="auto"
       inkscape:stockid="Stop"
       markerWidth="1"
       markerHeight="1"
       viewBox="0 0 1 1"
       inkscape:isstock="true"
       inkscape:collect="always"
       preserveAspectRatio="xMidYMid">
      <path
         style="fill:none;stroke:context-stroke;stroke-width:1"
         d="M 0,4 V -4"
         id="path23" />
    </marker>
    <marker
       style="overflow:visible"
       id="marker4-2"
       refX="0"
       refY="0"
       orient="auto"
       inkscape:stockid="Stop"
       markerWidth="1"
       markerHeight="1"
       viewBox="0 0 1 1"
       inkscape:isstock="true"
       inkscape:collect="always"
       preserveAspectRatio="xMidYMid">
      <path
         style="fill:none;stroke:context-stroke;stroke-width:1"
         d="M 0,4 V -4"
         id="path4-1" />
    </marker>
    <marker
       style="overflow:visible"
       id="Stop-1"
       refX="0"
       refY="0"
       orient="auto"
       inkscape:stockid="Stop"
       markerWidth="1"
       markerHeight="1"
       viewBox="0 0 1 1"
       inkscape:isstock="true"
       inkscape:collect="always"
       preserveAspectRatio="xMidYMid">
      <path
         style="fill:none;stroke:context-stroke;stroke-width:1"
         d="M 0,4 V -4"
         id="path23-4" />
    </marker>
    <marker
       style="overflow:visible"
       id="marker9"
       refX="0"
       refY="0"
       orient="auto"
       inkscape:stockid="Stop"
       markerWidth="1"
       markerHeight="1"
       viewBox="0 0 1 1"
       inkscape:isstock="true"
       inkscape:collect="always"
       preserveAspectRatio="xMidYMid">
      <path
         style="fill:none;stroke:context-stroke;stroke-width:1"
         d="M 0,4 V -4"
         id="path9" />
    </marker>
    <marker
       style="overflow:visible"
       id="marker8"
       refX="0"
       refY="0"
       orient="auto"
       inkscape:stockid="Stop"
       markerWidth="1"
       markerHeight="1"
       viewBox="0 0 1 1"
       inkscape:isstock="true"
       inkscape:collect="always"
       preserveAspectRatio="xMidYMid">
      <path
         style="fill:none;stroke:context-stroke;stroke-width:1"
         d="M 0,4 V -4"
         id="path8" />
    </marker>
  </defs>
  <g
     inkscape:label="Layer 1"
     inkscape:groupmode="layer"
     id="layer1">
    <g
       id="g6"
       style="display:inline">
      <path
         id="path1574"
         style="fill:none;stroke:#000000;stroke-width:0.210076;stroke-dasharray:none"
         d="m 8.7619597,50.026931 c -3.8340006,-10e-7 -6.9420723,-10.960043 -6.9420724,-24.47994 0,-13.519897 3.1080717,-24.4799395 6.9420724,-24.47994"
         sodipodi:nodetypes="csc" />
      <path
         id="path1574-0"
         style="fill:none;stroke:#000000;stroke-width:0.210076;stroke-dasharray:none"
         d="m 20.396638,50.026931 a 6.9420727,24.47994 0 0 1 -6.942073,-24.47994 6.9420727,24.47994 0 0 1 6.942073,-24.47994 6.9420727,24.47994 0 0 1 6.942072,24.47994 6.9420727,24.47994 0 0 1 -6.942072,24.47994 z" />
    </g>
    <path
       id="path1574-0-2"
       style="fill:#b2b2b2;fill-opacity:1;stroke:#000000;stroke-width:0.210076;stroke-dasharray:none"
       d="M 17.211906,3.7893225 C 18.165773,2.0496379 19.248665,1.0670507 20.396638,1.067051 l 62.594798,0.043475 c -1.17159,0.043475 -2.254482,1.0260627 -3.208349,2.7657473 z"
       sodipodi:nodetypes="cccc" />
    <path
       style="fill:#000000;stroke:#000000;stroke-width:0.210076;stroke-dasharray:none;stroke-opacity:1"
       d="M 8.7619597,50.02693 H 20.396638"
       id="path2" />
    <path
       style="fill:#000000;stroke:#000000;stroke-width:0.210076;stroke-dasharray:none;stroke-opacity:1"
       d="M 8.7619597,1.067051 H 20.396638"
       id="path3" />
    <path
       style="opacity:1;fill:#000000;stroke:#000000;stroke-width:0.264999;stroke-dasharray:none;stroke-opacity:1"
       d="M 83.015052,50.026929 H 20.396638 l -0.09258,-1.68797 60.147597,-0.169914 z"
       id="path5"
       sodipodi:nodetypes="ccccc" />
    <path
       style="display:inline;opacity:1;fill:#000000;stroke:#000000;stroke-width:0.264999;stroke-dasharray:none;stroke-opacity:1"
       d="M 79.783087,3.8762738 H 17.168749 l 0.492335,1.7704674 h 61.393293 z"
       id="path6"
       sodipodi:nodetypes="ccccc" />
    <path
       id="path1574-0-1"
       style="fill:#808080;fill-opacity:1;stroke:#000000;stroke-width:0.195042;stroke-dasharray:none"
       d="M 34.450223,48.036539 A 6.9461616,21.089128 0 0 1 27.504061,26.94741 6.9461616,21.089128 0 0 1 34.450223,5.8582825 6.9461616,21.089128 0 0 1 41.396384,26.94741 6.9461616,21.089128 0 0 1 34.450223,48.036539 Z" />
    <path
       id="path1574-0-1-3"
       style="display:inline;fill:#808080;fill-opacity:1;stroke:#000000;stroke-width:0.195042;stroke-dasharray:none"
       d="m 34.510295,48.096611 c -3.836259,10e-7 -6.946162,-9.441924 -6.946162,-21.089129 0,-11.647204 3.109903,-21.0891284 6.946162,-21.0891277 V 5.8745682 H 22.868763 c -3.836258,4e-7 -6.946161,9.4419248 -6.946161,21.0891278 0,11.647204 3.109903,21.089128 6.946161,21.089129 l 11.641532,-10e-7 z"
       sodipodi:nodetypes="cscccsccc" />
    <path
       id="path1574-0-1-5"
       style="fill:#808080;fill-opacity:1;stroke:#000000;stroke-width:0.2032;stroke-dasharray:none"
       d="m 111.29919,31.846102 a 1.7489383,5.3099231 0 0 1 -1.74894,-5.309924 1.7489383,5.3099231 0 0 1 1.74894,-5.309923 1.7489383,5.3099231 0 0 1 1.74894,5.309923 1.7489383,5.3099231 0 0 1 -1.74894,5.309924 z" />
    <path
       id="path1574-0-1-3-5"
       style="display:inline;fill:#808080;fill-opacity:1;stroke:#000000;stroke-width:0.2032;stroke-dasharray:none"
       d="m 81.302485,31.846102 c -0.96591,0 -1.74894,-2.366304 -1.74894,-5.298893 0,-2.93259 0.78303,-5.320954 1.74894,-5.320954 v 0 H 33.85911 c -0.965911,0 -1.748937,2.388365 -1.748937,5.320954 0,2.932591 0.783026,5.298893 1.748937,5.298893 z"
       sodipodi:nodetypes="cscccsccc" />
    <path
       id="path1574-8"
       style="fill:#ffffff;fill-opacity:1;stroke:#000000;stroke-width:0.210076;stroke-dasharray:none"
       d="m 94.649731,50.02693 -11.634678,10e-7 c -3.834001,-10e-7 -6.942073,-10.960043 -6.942073,-24.47994 0,-13.519897 3.108072,-24.4799402 6.942073,-24.4799402 h 11.942452 c -3.526231,-1.42e-5 -6.634307,10.9600322 -6.634307,24.4799402 0,13.519908 3.108076,24.479954 6.94208,24.47994"
       sodipodi:nodetypes="ccsccsc" />
    <path
       id="path1574-8-4"
       style="fill:#ffffff;fill-opacity:1;stroke:#000000;stroke-width:0.210076;stroke-dasharray:none"
       d="m 94.957505,1.0670508 c 3.526231,-1.4e-5 6.634305,10.9600322 6.634305,24.4799402 0,13.519908 -3.108074,24.479954 -6.942078,24.47994"
       sodipodi:nodetypes="csc" />
    <path
       id="path1574-0-1-3-5-0"
       style="display:inline;fill:#808080;fill-opacity:1;stroke:#000000;stroke-width:0.2032;stroke-dasharray:none"
       d="m 111.29919,31.846102 c -0.96591,0 -1.74894,-2.366304 -1.74894,-5.298893 0,-2.93259 0.78303,-5.320954 1.74894,-5.320954 v 0 H 94.97296 c -0.96591,0 -1.74893,2.388365 -1.74893,5.320954 0,2.932591 0.78302,5.298893 1.74893,5.298893 z"
       sodipodi:nodetypes="cscccscc" />
    <path
       style="fill:#ffffff;fill-opacity:1;stroke:#000000;stroke-width:0.2032;stroke-opacity:1;marker-start:url(#marker4);marker-end:url(#Stop)"
       d="M 43.038808,5.9872891 V 47.743812"
       id="path1"
       sodipodi:nodetypes="cc" />
    <text
       xml:space="preserve"
       style="font-size:3.175px;font-family:'Felix Titling';-inkscape-font-specification:'Felix Titling';text-align:center;text-anchor:middle;fill:#ffffff;fill-opacity:1;stroke:#000000;stroke-width:0.2032;stroke-opacity:1"
       x="26.69791"
       y="-44.92099"
       id="text4"
       transform="rotate(90)"><tspan
         sodipodi:role="line"
         id="tspan4"
         style="font-style:normal;font-variant:normal;font-weight:normal;font-stretch:normal;font-family:'TeX Gyre Pagella';-inkscape-font-specification:'TeX Gyre Pagella';fill:#000000;fill-opacity:1;stroke:none;stroke-width:0.2032"
         x="26.69791"
         y="-44.92099">cap diameter</tspan></text>
    <path
       style="fill:#ffffff;fill-opacity:1;stroke:#000000;stroke-width:0.2032;stroke-opacity:1;marker-start:url(#marker4-2);marker-end:url(#Stop-1)"
       d="M 117.35095,21.124655 V 31.947702"
       id="path1-5"
       sodipodi:nodetypes="cc" />
    <text
       xml:space="preserve"
       style="font-size:3.175px;font-family:'Felix Titling';-inkscape-font-specification:'Felix Titling';text-align:center;text-anchor:middle;fill:#ffffff;fill-opacity:1;stroke:#000000;stroke-width:0.2032;stroke-opacity:1"
       x="26.518717"
       y="-120.37449"
       id="text4-2"
       transform="rotate(90)"><tspan
         sodipodi:role="line"
         id="tspan4-7"
         style="font-style:normal;font-variant:normal;font-weight:normal;font-stretch:normal;font-family:'TeX Gyre Pagella';-inkscape-font-specification:'TeX Gyre Pagella';fill:#000000;fill-opacity:1;stroke:none;stroke-width:0.2032"
         x="26.518717"
         y="-120.37449">rod diameter</tspan></text>
    <g
       id="g1"
       transform="translate(12.45343,-9.9801224)">
      <path
         style="fill:none;fill-opacity:1;stroke:#000000;stroke-width:0.2032;stroke-opacity:1;marker-start:url(#marker9);marker-end:url(#marker8)"
         d="M 20.396637,25.546991 64.512536,25.057715"
         id="path7" />
      <text
         xml:space="preserve"
         style="font-style:normal;font-variant:normal;font-weight:normal;font-stretch:normal;font-size:3.175px;font-family:'TeX Gyre Pagella';-inkscape-font-specification:'TeX Gyre Pagella';text-align:center;text-anchor:middle;fill:none;fill-opacity:1;stroke:#000000;stroke-width:0.2032;stroke-opacity:1"
         x="48.462242"
         y="24.028687"
         id="text9"><tspan
           sodipodi:role="line"
           id="tspan9"
           style="fill:#000000;fill-opacity:1;stroke:none;stroke-width:0.2032"
           x="48.462242"
           y="24.028687">cylinder length</tspan></text>
    </g>
  </g>
</svg>
