<?xml version="1.0" encoding="UTF-8" standalone="no"?>
<!-- Created with Inkscape (http://www.inkscape.org/) -->

<svg
   width="4.5in"
   height="2in"
   viewBox="0 0 114.3 50.8"
   version="1.1"
   id="svg1"
   xmlns="http://www.w3.org/2000/svg"
   xmlns:svg="http://www.w3.org/2000/svg">
  <defs
     id="defs1">
    <marker
       style="overflow:visible"
       id="Triangle"
       refX="0"
       refY="0"
       orient="auto-start-reverse"
       markerWidth="1"
       markerHeight="1"
       viewBox="0 0 1 1"
       preserveAspectRatio="xMidYMid">
      <path
         transform="scale(0.5)"
         style="fill:context-stroke;fill-rule:evenodd;stroke:context-stroke;stroke-width:1pt"
         d="M 5.77,0 -2.88,5 V -5 Z"
         id="path135" />
    </marker>
    <marker
       style="overflow:visible"
       id="Triangle-3"
       refX="0"
       refY="0"
       orient="auto-start-reverse"
       markerWidth="1"
       markerHeight="1"
       viewBox="0 0 1 1"
       preserveAspectRatio="xMidYMid">
      <path
         transform="scale(0.5)"
         style="fill:context-stroke;fill-rule:evenodd;stroke:context-stroke;stroke-width:1pt"
         d="M 5.77,0 -2.88,5 V -5 Z"
         id="path135-6" />
    </marker>
  </defs>
  <g
     id="layer1">
    <g
       id="g6"
       style="display:inline">
      <path
         id="path1574"
         style="fill:none;stroke:#000000;stroke-width:0.210076;stroke-dasharray:none"
         d="m 8.7619597,50.026931 c -3.8340006,-10e-7 -6.9420723,-10.960043 -6.9420724,-24.47994 0,-13.519897 3.1080717,-24.4799395 6.9420724,-24.47994" />
      <path
         id="path1574-0"
         style="fill:none;stroke:#000000;stroke-width:0.210076;stroke-dasharray:none"
         d="m 20.396638,50.026931 a 6.9420727,24.47994 0 0 1 -6.942073,-24.47994 6.9420727,24.47994 0 0 1 6.942073,-24.47994 6.9420727,24.47994 0 0 1 6.942072,24.47994 6.9420727,24.47994 0 0 1 -6.942072,24.47994 z" />
    </g>
    <path
       id="path1574-0-2"
       style="fill:#b2b2b2;fill-opacity:1;stroke:#000000;stroke-width:0.210076;stroke-dasharray:none"
       d="M 17.211906,3.7893225 C 18.165773,2.0496379 19.248665,1.0670507 20.396638,1.067051 l 62.594798,0.043475 c -1.17159,0.043475 -2.254482,1.0260627 -3.208349,2.7657473 z" />
    <path
       style="fill:#000000;stroke:#000000;stroke-width:0.210076;stroke-dasharray:none;stroke-opacity:1"
       d="M 8.7619597,50.02693 H 20.396638"
       id="path2" />
    <path
       style="fill:#000000;stroke:#000000;stroke-width:0.210076;stroke-dasharray:none;stroke-opacity:1"
       d="M 8.7619597,1.067051 H 20.396638"
       id="path3" />
    <path
       style="opacity:1;fill:#000000;stroke:#000000;stroke-width:0.264999;stroke-dasharray:none;stroke-opacity:1"
       d="M 83.015052,50.026929 H 20.396638 l -0.09258,-1.68797 60.147597,-0.169914 z"
       id="path5" />
    <path
       style="display:inline;opacity:1;fill:#000000;stroke:#000000;stroke-width:0.264999;stroke-dasharray:none;stroke-opacity:1"
       d="M 79.783087,3.8762738 H 17.168749 l 0.492335,1.7704674 h 61.393293 z"
       id="path6" />
    <path
       id="path1574-0-1"
       style="fill:#808080;fill-opacity:1;stroke:#000000;stroke-width:0.195042;stroke-dasharray:none"
       d="M 55.35518,48.095589 A 6.9461616,21.089128 0 0 1 48.409018,27.00646 6.9461616,21.089128 0 0 1 55.35518,5.9173323 6.9461616,21.089128 0 0 1 62.301341,27.00646 6.9461616,21.089128 0 0 1 55.35518,48.095589 Z" />
    <path
       id="path1574-0-1-3"
       style="display:inline;fill:#808080;fill-opacity:1;stroke:#000000;stroke-width:0.195042;stroke-dasharray:none"
       d="m 55.415252,48.155661 c -3.836259,10e-7 -6.946162,-9.441924 -6.946162,-21.089129 0,-11.647204 3.109903,-21.0891286 6.946162,-21.0891279 V 5.933618 H 43.77372 c -3.836258,4e-7 -6.946161,9.441925 -6.946161,21.089128 0,11.647204 3.109903,21.089128 6.946161,21.089129 l 11.641532,-10e-7 z" />
    <path
       id="path1574-0-1-5"
       style="fill:#808080;fill-opacity:1;stroke:#000000;stroke-width:0.2032;stroke-dasharray:none"
       d="m 112.02005,32.316384 a 1.7489383,5.3099231 0 0 1 -1.74894,-5.309924 1.7489383,5.3099231 0 0 1 1.74894,-5.309923 1.7489383,5.3099231 0 0 1 1.74894,5.309923 1.7489383,5.3099231 0 0 1 -1.74894,5.309924 z" />
    <path
       id="path1574-0-1-3-5"
       style="display:inline;fill:#808080;fill-opacity:1;stroke:#000000;stroke-width:0.141679;stroke-dasharray:none"
       d="m 76.929596,31.905152 c -0.46957,0 -0.850234,-2.366304 -0.850234,-5.298893 0,-2.93259 0.380664,-5.320954 0.850234,-5.320954 v 0 H 53.865362 c -0.46957,0 -0.850232,2.388365 -0.850232,5.320954 0,2.932591 0.380662,5.298893 0.850232,5.298893 z" />
    <path
       id="path1574-8"
       style="fill:#ffffff;fill-opacity:1;stroke:#000000;stroke-width:0.210076;stroke-dasharray:none"
       d="m 94.649731,50.02693 -11.634678,10e-7 c -3.834001,-10e-7 -6.942073,-10.960043 -6.942073,-24.47994 0,-13.519897 3.108072,-24.4799402 6.942073,-24.4799402 h 11.942452 c -3.526231,-1.42e-5 -6.634307,10.9600322 -6.634307,24.4799402 0,13.519908 3.108076,24.479954 6.94208,24.47994" />
    <path
       id="path1574-8-4"
       style="fill:#ffffff;fill-opacity:1;stroke:#000000;stroke-width:0.210076;stroke-dasharray:none"
       d="m 94.957505,1.0670508 c 3.526231,-1.4e-5 6.634305,10.9600322 6.634305,24.4799402 0,13.519908 -3.108074,24.479954 -6.942078,24.47994" />
    <path
       id="path1574-0-1-3-5-0"
       style="display:inline;fill:#808080;fill-opacity:1;stroke:#000000;stroke-width:0.2032;stroke-dasharray:none"
       d="m 112.02005,32.316384 c -0.96591,0 -1.74894,-2.366304 -1.74894,-5.298893 0,-2.93259 0.78303,-5.320954 1.74894,-5.320954 v 0 H 95.693816 c -0.96591,0 -1.74893,2.388365 -1.74893,5.320954 0,2.932591 0.78302,5.298893 1.74893,5.298893 z" />
    <text
       xml:space="preserve"
       style="font-size:3.175px;font-family:'Felix Titling';-inkscape-font-specification:'Felix Titling';text-align:center;text-anchor:middle;fill:#ffffff;fill-opacity:1;stroke:#000000;stroke-width:0.2032;stroke-opacity:1"
       x="26.466848"
       y="37.424397"
       id="text4"><tspan
         id="tspan4"
         style="font-style:normal;font-variant:normal;font-weight:normal;font-stretch:normal;font-family:'TeX Gyre Pagella';-inkscape-font-specification:'TeX Gyre Pagella';fill:#000000;fill-opacity:1;stroke:none;stroke-width:0.2032"
         x="26.466848"
         y="37.424397">more area</tspan></text>
    <text
       xml:space="preserve"
       style="font-size:3.175px;font-family:'Felix Titling';-inkscape-font-specification:'Felix Titling';text-align:center;text-anchor:middle;fill:#ffffff;fill-opacity:1;stroke:#000000;stroke-width:0.2032;stroke-opacity:1"
       x="68.272614"
       y="13.13289"
       id="text4-2"><tspan
         id="tspan4-7"
         style="font-style:normal;font-variant:normal;font-weight:normal;font-stretch:normal;font-family:'TeX Gyre Pagella';-inkscape-font-specification:'TeX Gyre Pagella';fill:#000000;fill-opacity:1;stroke:none;stroke-width:0.2032"
         x="68.272614"
         y="13.13289">less area</tspan></text>
    <path
       style="fill:none;stroke:#000000;stroke-width:0.2032;stroke-opacity:1;marker-end:url(#Triangle)"
       d="M 68.272612,13.13289 55.512774,16.219363"
       id="path1" />
    <path
       style="fill:none;stroke:#000000;stroke-width:0.2032;stroke-opacity:1;marker-end:url(#Triangle-3)"
       d="m 28.395743,34.613302 7.304115,-7.563191"
       id="path1-3" />
    <text
       xml:space="preserve"
       style="font-size:3.175px;font-family:'Felix Titling';-inkscape-font-specification:'Felix Titling';text-align:center;text-anchor:middle;fill:#ffffff;fill-opacity:1;stroke:#000000;stroke-width:0.2032;stroke-opacity:1"
       x="26.454147"
       y="41.131996"
       id="text4-1"><tspan
         id="tspan4-79"
         style="font-style:normal;font-variant:normal;font-weight:normal;font-stretch:normal;font-family:'TeX Gyre Pagella';-inkscape-font-specification:'TeX Gyre Pagella';fill:#000000;fill-opacity:1;stroke:none;stroke-width:0.2032"
         x="26.454147"
         y="41.131996">cap side</tspan></text>
    <text
       xml:space="preserve"
       style="font-size:3.175px;font-family:'Felix Titling';-inkscape-font-specification:'Felix Titling';text-align:center;text-anchor:middle;fill:#ffffff;fill-opacity:1;stroke:#000000;stroke-width:0.2032;stroke-opacity:1"
       x="67.809532"
       y="17.650885"
       id="text4-1-9"><tspan
         id="tspan4-79-6"
         style="font-style:normal;font-variant:normal;font-weight:normal;font-stretch:normal;font-family:'TeX Gyre Pagella';-inkscape-font-specification:'TeX Gyre Pagella';fill:#000000;fill-opacity:1;stroke:none;stroke-width:0.2032"
         x="67.809532"
         y="17.650885">rod side</tspan></text>
  </g>
</svg>
