<?xml version="1.0" encoding="UTF-8" standalone="no"?>
<svg xmlns="http://www.w3.org/2000/svg" xmlns:svg="http://www.w3.org/2000/svg" width="3.4in" height="1.85in" viewBox="0 0 81.280001 46.990001" version="1.1">
  <defs>
    <marker style="overflow:visible" id="Triangle" refX="0" refY="0" orient="auto-start-reverse" markerWidth="1" markerHeight="1" viewBox="0 0 1 1" preserveAspectRatio="xMidYMid">
      <path transform="scale(0.5)" style="fill:context-stroke;fill-rule:evenodd;stroke:context-stroke;stroke-width:1pt" d="M 5.77,0 -2.88,5 V -5 Z" id="path135"/>
    </marker>
  </defs>
  <path style="fill:#808080;fill-opacity:1;stroke:#000000;stroke-width:0.195042;stroke-dasharray:none" d="M 19.317841,42.710741 A 6.9461616,21.089128 0 0 1 12.371679,21.621612 6.9461616,21.089128 0 0 1 19.317841,0.53248441 6.9461616,21.089128 0 0 1 26.264002,21.621612 6.9461616,21.089128 0 0 1 19.317841,42.710741 Z"/>
  <path style="display:inline;fill:#808080;fill-opacity:1;stroke:#000000;stroke-width:0.195042;stroke-dasharray:none" d="m 19.377913,42.770813 c -3.836259,1e-6 -6.946162,-9.441924 -6.946162,-21.089129 0,-11.647204 3.109903,-21.08912849 6.946162,-21.08912779 V 0.54877011 H 7.736381 c -3.836258,4e-7 -6.94616104,9.44192489 -6.94616104,21.08912789 0,11.647204 3.10990304,21.089128 6.94616104,21.089129 l 11.641532,-10e-7 z"/>
  <path style="fill:#808080;fill-opacity:1;stroke:#000000;stroke-width:0.2032;stroke-dasharray:none" d="m 75.982711,26.931536 a 1.7489383,5.3099231 0 0 1 -1.74894,-5.309924 1.7489383,5.3099231 0 0 1 1.74894,-5.309923 1.7489383,5.3099231 0 0 1 1.74894,5.309923 1.7489383,5.3099231 0 0 1 -1.74894,5.309924 z"/>
  <path style="display:inline;fill:#808080;fill-opacity:1;stroke:#000000;stroke-width:0.2032;stroke-dasharray:none" d="m 75.982711,26.920505 c -0.96591,0 -1.74894,-2.366304 -1.74894,-5.298893 0,-2.93259 1.74894,-5.320954 1.74894,-5.320954 v 0 l -57.25599,-0.400201 c -0.965886,-0.0068 -1.74893,2.388365 -1.74893,5.320954 0,2.932591 0.783044,5.292142 1.74893,5.298893 z"/>
  <path style="fill:none;stroke:#000000;stroke-width:0.2032;stroke-opacity:1;marker-start:url(#Triangle);marker-end:url(#Triangle)" d="M 10.48328,42.047345 V 1.1718127"/>
  <path style="fill:none;stroke:#000000;stroke-width:0.2032;stroke-opacity:1;marker-start:url(#Triangle);marker-end:url(#Triangle)" d="M 76.106122,25.986864 V 16.999786"/>
  <path style="fill:none;stroke:#000000;stroke-width:0.2032;stroke-opacity:1;marker-start:url(#Triangle);marker-end:url(#Triangle)" d="M 18.500456,43.722521 H 7.870811"/>
  <path style="fill:none;stroke:#000000;stroke-width:0.2032;stroke-opacity:1;marker-start:url(#Triangle);marker-end:url(#Triangle)" d="M 73.218895,21.470739 H 17.786822"/>
  <text xml:space="preserve" style="font-size:3.175px;font-family:sans-serif;text-align:center;text-anchor:end;fill:#ffffff;fill-opacity:1;stroke:#000000;stroke-width:0.2032;stroke-opacity:1" x="7.9752784" y="22.671616"><tspan style="font-style:normal;font-variant:normal;font-weight:normal;font-stretch:normal;font-family:sans-serif;fill:#000000;fill-opacity:1;stroke:none;stroke-width:0.2032" x="7.9752784" y="22.671616">33</tspan></text>
  <text xml:space="preserve" style="font-size:3.175px;font-family:sans-serif;text-align:center;text-anchor:middle;fill:#0000ff;fill-opacity:1;stroke:#000000;stroke-width:0.2032;stroke-opacity:1" x="13.226909" y="46.502438"><tspan style="font-style:normal;font-variant:normal;font-weight:normal;font-stretch:normal;font-family:sans-serif;fill:#000000;fill-opacity:1;stroke:none;stroke-width:0.2032" x="13.226909" y="46.502438">5</tspan></text>
  <text xml:space="preserve" style="font-size:3.175px;font-family:sans-serif;text-align:center;text-anchor:start;fill:#ffffff;fill-opacity:1;stroke:#000000;stroke-width:0.2032;stroke-opacity:1" x="79.702995" y="22.555363"><tspan style="font-style:normal;font-variant:normal;font-weight:normal;font-stretch:normal;font-family:sans-serif;fill:#000000;fill-opacity:1;stroke:none;stroke-width:0.2032" x="79.702995" y="22.555363">13</tspan></text>
  <text xml:space="preserve" style="font-size:3.175px;font-family:sans-serif;text-align:center;text-anchor:middle;fill:#ffffff;fill-opacity:1;stroke:#000000;stroke-width:0.2032;stroke-opacity:1" x="45.521908" y="24.386402"><tspan style="font-style:normal;font-variant:normal;font-weight:normal;font-stretch:normal;font-family:sans-serif;fill:#000000;fill-opacity:1;stroke:none;stroke-width:0.2032" x="45.521908" y="24.386402">56</tspan></text>
</svg>