<?xml version="1.0" encoding="UTF-8" standalone="no"?>
<svg xmlns="http://www.w3.org/2000/svg" xmlns:svg="http://www.w3.org/2000/svg" width="5.1in" height="3.135in" xml:space="preserve" overflow="hidden" version="1.1">
<defs/>
<path d="M 32.112577,257.79334 H 476.23779 M 32.112577,252.02836 H 476.23779 M 32.112577,246.04165 H 476.23779 M 32.112577,240.27667 H 476.23779 M 32.112577,228.52498 H 476.23779 M 32.112577,222.75778 H 476.23779 M 32.112577,216.77108 H 476.23779 M 32.112577,211.0061 H 476.23779 M 32.112577,199.25462 H 476.23779 M 32.112577,193.48964 H 476.23779 M 32.112577,187.50271 H 476.23779 M 32.112577,181.73751 H 476.23779 M 32.112577,169.98537 H 476.23779 M 32.112577,164.22017 H 476.23779 M 32.112577,158.23324 H 476.23779 M 32.112577,152.46804 H 476.23779 M 32.112577,140.71613 H 476.23779 M 32.112577,134.95092 H 476.23779 M 32.112577,128.96399 H 476.23779 M 32.112577,123.19879 H 476.23779 M 32.112577,111.44666 H 476.23779 M 32.112577,105.68168 H 476.23779 M 32.112577,99.69474 H 476.23779 M 32.112577,93.929534 H 476.23779 M 32.112577,82.177403 H 476.23779 M 32.112577,76.412208 H 476.23779 M 32.112577,70.425271 H 476.23779 M 32.112577,64.660065 H 476.23779 M 32.112577,52.908156 H 476.23779 M 32.112577,47.142955 H 476.23779 M 32.112577,41.156022 H 476.23779 M 32.112577,35.390821 H 476.23779" stroke="#f2f2f2" stroke-width="0.762196" stroke-linejoin="round" stroke-miterlimit="10" fill="none"/>
<path d="M 32.112577,234.28996 H 476.23779 M 32.112577,205.01982 H 476.23779 M 32.112577,175.75058 H 476.23779 M 32.112577,146.48132 H 476.23779 M 32.112577,117.21185 H 476.23779 M 32.112577,87.942609 H 476.23779 M 32.112577,58.673359 H 476.23779 M 32.112577,29.402559 H 476.23779" stroke="#d9d9d9" stroke-width="0.762196" stroke-linejoin="round" stroke-miterlimit="10" fill="none"/>
<path d="M 49.862064,29.402559 V 263.54945 M 67.600467,29.402559 V 263.54945 M 85.338871,29.402559 V 263.54945 M 103.30122,29.402559 V 263.54945 M 138.77802,29.402559 V 263.54945 M 156.51642,29.402559 V 263.54945 M 174.25703,29.402559 V 263.54945 M 191.99544,29.402559 V 263.54945 M 227.47224,29.402559 V 263.54945 M 245.21286,29.402559 V 263.54945 M 263.17298,29.402559 V 263.54945 M 280.91139,29.402559 V 263.54945 M 316.3904,29.402559 V 263.54945 M 334.12881,29.402559 V 263.54945 M 351.86721,29.402559 V 263.54945 M 369.60783,29.402559 V 263.54945 M 405.08463,29.402559 V 263.54945 M 423.04476,29.402559 V 263.54945 M 440.78538,29.402559 V 263.54945 M 458.52377,29.402559 V 263.54945" stroke="#f2f2f2" stroke-width="0.762196" stroke-linejoin="round" stroke-miterlimit="10" fill="none"/>
<path d="M 121.03961,29.402559 V 263.54945 M 209.73384,29.402559 V 263.54945 M 298.64979,29.402559 V 263.54945 M 387.34623,29.402559 V 263.54945 M 476.23779,29.402559 V 263.54945" stroke="#d9d9d9" stroke-width="0.762196" stroke-linejoin="round" stroke-miterlimit="10" fill="none"/>
<path d="m 32.112577,263.54945 7.9e-5,-234.146891" stroke="#bfbfbf" stroke-width="0.762196" stroke-linejoin="round" stroke-miterlimit="10" fill="none" fill-rule="evenodd"/>
<path d="M 32.112577,263.54945 H 476.23779" stroke="#bfbfbf" stroke-width="0.762196" stroke-linejoin="round" stroke-miterlimit="10" fill="none" fill-rule="evenodd"/>
<path d="m 283.27725,102.53177 c 0,1.34701 -1.09313,2.43882 -2.43903,2.43882 -1.34812,0 -2.43904,-1.09181 -2.43904,-2.43882 0,-1.347 1.09092,-2.43902 2.43904,-2.43902 1.3459,0 2.43903,1.09202 2.43903,2.43902 z" stroke="#156082" stroke-width="0.762196" stroke-linejoin="round" stroke-miterlimit="10" fill="#156082"/>
<path d="m 212.10192,175.70268 c 0,1.34701 -1.09313,2.4388 -2.43904,2.4388 -1.34811,0 -2.43903,-1.09179 -2.43903,-2.4388 0,-1.34701 1.09092,-2.43902 2.43903,-2.43902 1.34591,0 2.43904,1.09201 2.43904,2.43902 z" stroke="#156082" stroke-width="0.762196" stroke-linejoin="round" stroke-miterlimit="10" fill="#156082"/>
<path d="m 176.62511,190.33686 c 0,1.34701 -1.09313,2.43881 -2.43902,2.43881 -1.34813,0 -2.43904,-1.0918 -2.43904,-2.43881 0,-1.34701 1.09091,-2.43903 2.43904,-2.43903 1.34589,0 2.43902,1.09202 2.43902,2.43903 z" stroke="#156082" stroke-width="0.762196" stroke-linejoin="round" stroke-miterlimit="10" fill="#156082"/>
<path d="m 265.53885,146.43432 c 0,1.34701 -1.09313,2.43881 -2.43904,2.43881 -1.34811,0 -2.43902,-1.0918 -2.43902,-2.43881 0,-1.34701 1.09091,-2.43903 2.43902,-2.43903 1.34591,0 2.43904,1.09202 2.43904,2.43903 z" stroke="#156082" stroke-width="0.762196" stroke-linejoin="round" stroke-miterlimit="10" fill="#156082"/>
<path d="m 354.23085,58.629234 c 0,1.34701 -1.09313,2.438808 -2.43903,2.438808 -1.34812,0 -2.43904,-1.091798 -2.43904,-2.438808 0,-1.347009 1.09092,-2.43903 2.43904,-2.43903 1.3459,0 2.43903,1.092021 2.43903,2.43903 z" stroke="#156082" stroke-width="0.762196" stroke-linejoin="round" stroke-miterlimit="10" fill="#156082"/>
<path d="m 158.88672,204.97104 c 0,1.34701 -1.09313,2.43881 -2.43904,2.43881 -1.34811,0 -2.43903,-1.0918 -2.43903,-2.43881 0,-1.34701 1.09092,-2.43903 2.43903,-2.43903 1.34591,0 2.43904,1.09202 2.43904,2.43903 z" stroke="#156082" stroke-width="0.762196" stroke-linejoin="round" stroke-miterlimit="10" fill="#156082"/>
<path d="m 105.6715,219.60478 c 0,1.34811 -1.09313,2.43903 -2.43902,2.43903 -1.34813,0 -2.43903,-1.09092 -2.43903,-2.43903 0,-1.3459 1.0909,-2.43902 2.43903,-2.43902 1.34589,0 2.43902,1.09312 2.43902,2.43902 z" stroke="#156082" stroke-width="0.762196" stroke-linejoin="round" stroke-miterlimit="10" fill="#156082"/>
<path d="m 301.01565,102.53177 c 0,1.34701 -1.09313,2.43882 -2.43903,2.43882 -1.34812,0 -2.43903,-1.09181 -2.43903,-2.43882 0,-1.347 1.09091,-2.43902 2.43903,-2.43902 1.3459,0 2.43903,1.09202 2.43903,2.43902 z" stroke="#156082" stroke-width="0.762196" stroke-linejoin="round" stroke-miterlimit="10" fill="#156082"/>
<path d="m 407.66778,43.995054 c 0,1.347009 -1.09313,2.438808 -2.43903,2.438808 -1.34812,0 -2.43902,-1.091799 -2.43902,-2.438808 0,-1.34701 1.0909,-2.439031 2.43902,-2.439031 1.3459,0 2.43903,1.092021 2.43903,2.439031 z" stroke="#156082" stroke-width="0.762196" stroke-linejoin="round" stroke-miterlimit="10" fill="#156082"/>
<path d="m 69.972978,234.23896 c 0,1.34812 -1.093129,2.43903 -2.439034,2.43903 -1.348116,0 -2.439033,-1.09091 -2.439033,-2.43903 0,-1.3459 1.090917,-2.43903 2.439033,-2.43903 1.345905,0 2.439034,1.09313 2.439034,2.43903 z" stroke="#156082" stroke-width="0.762196" stroke-linejoin="round" stroke-miterlimit="10" fill="#156082"/>
<path d="m 123.40991,190.33686 c 0,1.34701 -1.09313,2.43881 -2.43903,2.43881 -1.34812,0 -2.43903,-1.0918 -2.43903,-2.43881 0,-1.34701 1.09091,-2.43903 2.43903,-2.43903 1.3459,0 2.43903,1.09202 2.43903,2.43903 z" stroke="#156082" stroke-width="0.762196" stroke-linejoin="round" stroke-miterlimit="10" fill="#156082"/>
<path d="m 247.80044,161.0685 c 0,1.34701 -1.09313,2.43881 -2.43902,2.43881 -1.34813,0 -2.43903,-1.0918 -2.43903,-2.43881 0,-1.34701 1.0909,-2.43903 2.43903,-2.43903 1.34589,0 2.43902,1.09202 2.43902,2.43903 z" stroke="#156082" stroke-width="0.762196" stroke-linejoin="round" stroke-miterlimit="10" fill="#156082"/>
<path d="m 265.53885,131.80014 c 0,1.34701 -1.09313,2.4388 -2.43904,2.4388 -1.34811,0 -2.43902,-1.09179 -2.43902,-2.4388 0,-1.34701 1.09091,-2.43902 2.43902,-2.43902 1.34591,0 2.43904,1.09201 2.43904,2.43902 z" stroke="#156082" stroke-width="0.762196" stroke-linejoin="round" stroke-miterlimit="10" fill="#156082"/>
<path d="M 67.589374,244.25894 405.28419,45.810579" stroke="#156082" stroke-width="1.52439" stroke-linecap="round" stroke-linejoin="round" stroke-miterlimit="10" stroke-dasharray="0, 13.75" fill="none" fill-rule="evenodd" style="stroke-dasharray:none"/>
<text fill="#595959" font-family="sans-serif" font-size="9.09093px" x="14.425174" y="266.32104" style="stroke-width:0.22173">68</text>
<text fill="#595959" font-family="sans-serif" font-size="9.09093px" x="14.425174" y="237.0527" style="stroke-width:0.22173">70</text>
<text fill="#595959" font-family="sans-serif" font-size="9.09093px" x="14.425174" y="207.56261" style="stroke-width:0.22173">72</text>
<text fill="#595959" font-family="sans-serif" font-size="9.09093px" x="14.425174" y="178.29424" style="stroke-width:0.22173">74</text>
<text fill="#595959" font-family="sans-serif" font-size="9.09093px" x="14.425174" y="149.02591" style="stroke-width:0.22173">76</text>
<text fill="#595959" font-family="sans-serif" font-size="9.09093px" x="14.425174" y="119.75754" style="stroke-width:0.22173">78</text>
<text fill="#595959" font-family="sans-serif" font-size="9.09093px" x="14.425174" y="90.489174" style="stroke-width:0.22173">80</text>
<text fill="#595959" font-family="sans-serif" font-size="9.09093px" x="14.425174" y="61.220818" style="stroke-width:0.22173">82</text>
<text fill="#595959" font-family="sans-serif" font-size="9.09093px" x="14.425174" y="31.952452" style="stroke-width:0.22173">84</text>
<text fill="#595959" font-family="sans-serif" font-size="9.09093px" x="27.502813" y="278.07275" style="stroke-width:0.22173">30</text>
<text fill="#595959" font-family="sans-serif" font-size="9.09093px" x="116.32564" y="278.07275" style="stroke-width:0.22173">35</text>
<text fill="#595959" font-family="sans-serif" font-size="9.09093px" x="205.14845" y="278.07275" style="stroke-width:0.22173">40</text>
<text fill="#595959" font-family="sans-serif" font-size="9.09093px" x="293.97125" y="278.07275" style="stroke-width:0.22173">45</text>
<text fill="#595959" font-family="sans-serif" font-size="9.09093px" x="382.7941" y="278.07275" style="stroke-width:0.22173">50</text>
<text fill="#595959" font-family="sans-serif" font-size="9.09093px" x="471.61691" y="278.07275" style="stroke-width:0.22173">55</text>
<text fill="#595959" font-family="sans-serif" font-size="10.1996px" transform="rotate(-90)" x="-194.70227" y="8.5049782" style="stroke-width:0.22173"><tspan style="font-style:normal;font-variant:normal;font-weight:normal;font-stretch:normal;font-family:sans-serif;stroke-width:0.22173">Current temperature (F)</tspan></text>
<text fill="#595959" font-family="sans-serif" font-size="10.1996px" x="197.17282" y="293.15039" style="stroke-width:0.22173"><tspan style="font-style:normal;font-variant:normal;font-weight:normal;font-stretch:normal;font-family:sans-serif;stroke-width:0.22173">Cricket chirps in 15 seconds</tspan></text>
<text fill="#595959" font-family="sans-serif" font-size="14.1907px" x="97.540657" y="12.661944" style="stroke-width:0.22173"><tspan style="font-style:normal;font-variant:normal;font-weight:normal;font-stretch:normal;font-family:sans-serif;stroke-width:0.22173">Current temperature as predicted by cricket chirps</tspan></text>
<text fill="#595959" font-family="sans-serif" font-size="64px" x="148.6326" y="43.596825" style="font-size:10.643px;stroke-width:0.22173"><tspan style="font-style:normal;font-variant:normal;font-weight:bold;font-stretch:normal;font-family:sans-serif;stroke-width:0.22173">Current temperature (F) = 0.714 chirps + 46.5</tspan>
   </text>
</svg>