<?xml version="1.0" encoding="UTF-8" standalone="no"?>
<svg width="59mm" height="60mm" viewBox="0 0 59 60.3892744">
    <ellipse style="fill:none;stroke:#000000;stroke-width:0.265" cx="25.989969" cy="7.5329223" rx="25.368147" ry="7.1939521"/>
    <path style="fill:none;stroke:#000000;stroke-width:0.265" d="M 0.62182236,7.5329223 v 45.6624"/>
    <path style="fill:none;stroke:#000000;stroke-width:0.265" d="M 51.358116,7.5329223 v 45.6624"/>
    <path style="fill:none;stroke:#000000;stroke-width:0.265" d="M 12.399297,13.711928 25.935283,7.6538624"/>
    <path style="fill:none;stroke:#000000;stroke-width:0.265;stroke-dasharray:1.59001, 1.59001;stroke-dashoffset:0" d="M 0.62182236,53.1953223 c 0,-3.97311 11.35770675,-7.193951 25.36814875,-7.193951 14.010437,0 25.368146,3.220841 25.368146,7.193951"/>
    <path style="fill:none;stroke:#000000;stroke-width:0.265" d="M 51.358116,53.1953223 c 0,3.97311 -11.357706,7.193953 -25.368146,7.193953 -14.010442,0 -25.36814869,-3.220843 -25.36814869,-7.193953"/>
    <path style="fill:none;stroke:#000000;stroke-width:0.265;stroke-dasharray:1.59001, 1.59001;stroke-dashoffset:0" d="M 0.62182236,42.2363463 c 0,-3.97311 11.35770665,-7.193951 25.36814865,-7.193951 14.010437,0 25.368146,3.220841 25.368146,7.193951"/>
    <path style="fill:none;stroke:#000000;stroke-width:0.265" d="M 51.43682,42.2363463 c 0,3.97311 -11.357706,7.193953 -25.368146,7.193953 -14.010442,0 -25.36814865,-3.220843 -25.36814865,-7.193953"/>
    <path style="fill:#554400;fill-opacity:0.5;stroke:none" d="M 25.989075,60.3892744 c -14.010442,0 -25.36814938,-3.220843 -25.43549738,-7.191617         -0.06708,-9.818115 0.09472,-19.424153 0.120252,-10.958976         0.0258,3.959932 11.38350738,7.180775 25.39394938,7.180775         14.01044,0 25.368146,-3.220843 25.32047,-7.193171         -0.04741,9.817682 0.10387,19.450261 0.03629,10.958976         -0.06732,3.973696 -11.425022,7.194539 -25.435462,7.194539 z"/>
    <ellipse style="fill:#554400;fill-opacity:0.5;stroke:none" cx="25.989969" cy="42.2363463" rx="25.368147" ry="7.1939521"/>
    <text style="font-size:5.71159px" x="30.3641223" y="-54.097469" transform="rotate(90)">9.0</text>
    <text style="font-size:5.71159px" x="7.5573468" y="8.8089228">5.0</text>
</svg>