<?xml version="1.0" encoding="UTF-8" standalone="no"?>
<svg xmlns="http://www.w3.org/2000/svg" xmlns:svg="http://www.w3.org/2000/svg" width="100mm" height="40mm" viewBox="0 0 100 40" version="1.1">
  <g>
    <path style="fill:#d1d1d1;fill-opacity:1;stroke:#000000;stroke-width:0.165;stroke-dasharray:none" d="m 86.354491,35.205237 2.074429,1.550678 h 11.325494 v -1.550678 z"/>
    <path style="fill:#d1d1d1;fill-opacity:1;stroke:#000000;stroke-width:0.165;stroke-dasharray:none" d="m 93.054452,26.178071 h 0.552628 v 9.027166 h -0.552628 z"/>
    <path style="fill:#ffffff;fill-opacity:1;stroke:#000000;stroke-width:0.165;stroke-dasharray:none" d="m 93.607078,26.178071 5.039708,8.44566 H 93.60708 Z"/>
    <path style="fill:none;fill-opacity:1;stroke:#000000;stroke-width:0.165" d="M 0.57698618,0.51928918 H 9.7520436 V 36.794818 H 0.57698618 Z"/>
    <path style="fill:none;fill-opacity:1;stroke:#1400ff;stroke-width:0.176741;stroke-dasharray:none;stroke-opacity:1" d="m 88.426979,36.756002 c 0,0 -4.513456,2.548847 -9.992379,0.0097 -5.47892,-2.539156 -9.676355,4e-6 -9.676355,4e-6 0,0 -4.513456,2.548847 -9.992378,0.0097 -5.478921,-2.539156 -9.676356,4e-6 -9.676356,4e-6 0,0 -4.513455,2.548847 -9.992378,0.0097 -5.478921,-2.539156 -9.676356,4e-6 -9.676356,4e-6 0,0 -4.513455,2.548847 -9.992378,0.0097 -5.478921,-2.539156 -9.6763554,4e-6 -9.6763554,4e-6"/>
    <text xml:space="preserve" style="font-size:4.23333px;font-family:sans-serif;text-align:center;text-anchor:middle;fill:#ffffff;fill-opacity:0.819608;stroke:#1400ff;stroke-width:0.165;stroke-dasharray:none;stroke-opacity:1" x="47.941086" y="34.604836"><tspan style="fill:#000000;fill-opacity:0.819608;stroke:none;stroke-width:0.165" x="47.941086" y="34.604836">2000 m</tspan></text>
    <text xml:space="preserve" style="font-size:4.23333px;font-family:sans-serif;text-align:center;text-anchor:middle;fill:#000000;fill-opacity:0.819608;stroke:none;stroke-width:0.165;stroke-dasharray:none;stroke-opacity:1" x="75.064026" y="34.732922"><tspan style="stroke-width:0.165" x="75.064026" y="34.732922">20. °</tspan></text>
    <path style="fill:none;fill-opacity:0.819608;stroke:#000000;stroke-width:0.165;stroke-dasharray:none;stroke-opacity:1" d="M 9.7520446,0.51928918 86.354491,35.205237 H 9.7520446"/>
  </g>
</svg>