<?xml version="1.0" encoding="UTF-8" standalone="no"?>
<svg xmlns="http://www.w3.org/2000/svg" xmlns:svg="http://www.w3.org/2000/svg" width="76mm" height="30mm" viewBox="0 0 76 30" version="1.1">
  <defs id="defs1">
    <marker style="overflow:visible" id="Triangle" refX="0" refY="0" orient="auto-start-reverse" markerWidth="1" markerHeight="1" viewBox="0 0 1 1" preserveAspectRatio="xMidYMid">
      <path transform="scale(0.5)" style="fill:context-stroke;fill-rule:evenodd;stroke:context-stroke;stroke-width:1pt" d="M 5.77,0 -2.88,5 V -5 Z" id="path135"/>
    </marker>
  </defs>
  <g>
    <path style="fill:none;stroke:#000000;stroke-width:0.161143" transform="rotate(13.716644)" d="m 30.793937,-3.7729282 c 1.39421,-2.6003975 3.301558,-4.2030701 5.405053,-4.2030702 4.271154,-2e-7 7.733609,6.6077334 7.733609,14.7587852 0,8.1510522 -3.462455,14.7587852 -7.733609,14.7587852 -1.436131,0 -2.780834,-0.747051 -3.933226,-2.048634"/>
    <path style="fill:none;stroke:#000000;stroke-width:0.161143" d="m 69.635624,0.64674595 c 0.382788,-0.0126603 0.72223,0.0972256 1.095142,0.18824658 4.149342,1.01277787 5.946222,8.25307867 4.013441,16.17166447 -1.730441,7.089602 -6.004048,12.331924 -9.828362,12.62236"/>
    <path style="fill:none;stroke:#000000;stroke-width:0.118529" transform="rotate(13.716644)" d="M 30.719341,-3.6319089 H 41.678636 V 17.197481"/>
    <rect style="fill:none;stroke:#000000;stroke-width:0.118529;stroke-dasharray:none" id="rect1-7" width="10.959294" height="20.82939" x="6.2231779" y="2.3471513" transform="rotate(13.716644)"/>
    <path style="fill:none;stroke:#000000;stroke-width:0.164;stroke-dasharray:none" d="M 5.4891372,3.7558535 H 30.704434"/>
    <path style="fill:none;stroke:#000000;stroke-width:0.164;stroke-dasharray:none" d="m 16.135876,6.3545255 25.233052,0.072873"/>
    <path style="fill:none;stroke:#000000;stroke-width:0.164;stroke-dasharray:none" d="m 11.196803,26.589866 25.265742,-0.05777"/>
    <path style="fill:none;stroke:#000000;stroke-width:0.164;stroke-dasharray:none" d="m 35.967588,0.71956595 33.668036,-0.07282"/>
    <path style="fill:none;stroke:#000000;stroke-width:0.164;stroke-dasharray:none" d="M 31.076259,29.629017 H 64.915845"/>
    <path style="fill:none;stroke:#000000;stroke-width:0.164;stroke-dasharray:none;marker-start:url(#Triangle);marker-end:url(#Triangle)" d="M 40.090085,21.94012 H 72.303341"/>
    <path style="fill:none;stroke:#000000;stroke-width:0.164;stroke-dasharray:none;marker-start:url(#Triangle);marker-end:url(#Triangle)" d="M 11.951864,25.534889 H 36.055439"/>
    <text xml:space="preserve" style="font-size:3.52777px;font-family:sans-serif;text-align:center;text-anchor:middle;fill:none;stroke:#000000;stroke-width:0.164;stroke-dasharray:none" x="56.193184" y="21.196079"><tspan style="fill:#000000;fill-opacity:1;stroke:none;stroke-width:0.164" x="56.193184" y="21.196079">22 mm</tspan></text>
    <text xml:space="preserve" style="font-size:3.52777px;font-family:sans-serif;text-align:center;text-anchor:middle;fill:none;stroke:#000000;stroke-width:0.164;stroke-dasharray:none" x="24.000122" y="24.820883"><tspan style="fill:#000000;fill-opacity:1;stroke:none;stroke-width:0.164" x="24.000122" y="24.820883">18 mm</tspan></text>
    <text xml:space="preserve" style="font-size:3.52777px;font-family:sans-serif;text-align:center;text-anchor:middle;fill:none;stroke:#000000;stroke-width:0.164;stroke-dasharray:none" x="10.065876" y="8.6939573"><tspan style="fill:#000000;fill-opacity:1;stroke:none;stroke-width:0.164" x="10.065876" y="8.6939573">5 mm</tspan></text>
    <text xml:space="preserve" style="font-size:3.52777px;font-family:sans-serif;text-align:center;text-anchor:middle;fill:none;stroke:#000000;stroke-width:0.164;stroke-dasharray:none" x="18.829884" y="18.037457"><tspan style="fill:#000000;fill-opacity:1;stroke:none;stroke-width:0.164" x="18.829884" y="18.037457">5 mm</tspan></text>
  </g>
</svg>