<?xml version="1.0" encoding="UTF-8" standalone="no"?>
<svg xmlns:xlink="http://www.w3.org/1999/xlink" xmlns="http://www.w3.org/2000/svg" xmlns:svg="http://www.w3.org/2000/svg" width="42mm" height="68mm" viewBox="0 0 42 68" version="1.1">
  <defs>
    <marker style="overflow:visible" id="Triangle" refX="0" refY="0" orient="auto-start-reverse" markerWidth="1" markerHeight="1" viewBox="0 0 1 1" preserveAspectRatio="xMidYMid">
      <path transform="scale(0.5)" style="fill:context-stroke;fill-rule:evenodd;stroke:context-stroke;stroke-width:1pt" d="M 5.77,0 -2.88,5 V -5 Z" id="path135"/>
    </marker>
    <linearGradient id="linearGradient3">
      <stop style="stop-color:#c8c8c8;stop-opacity:1;" offset="0" id="stop3"/>
      <stop style="stop-color:#c8c8c8;stop-opacity:0;" offset="1" id="stop4"/>
    </linearGradient>
    <linearGradient xlink:href="#linearGradient3" id="linearGradient4" x1="10.153568" y1="21.780954" x2="28.880869" y2="21.780954" gradientUnits="userSpaceOnUse" gradientTransform="matrix(2.0015928,0,0,2.0015928,-16.275571,-4.2629435)"/>
  </defs>
  <g>
    <path style="fill:url(#linearGradient4);stroke:#000000;stroke-width:0.265;stroke-dasharray:none;stroke-opacity:1" d="M 22.789826,5.1796535 A 18.576943,6.2524333 0 0 0 4.212869,11.43231 18.576943,6.2524333 0 0 0 22.789826,17.684966 18.576943,6.2524333 0 0 0 41.366782,11.43231 18.576943,6.2524333 0 0 0 22.789826,5.1796535 Z m 0,1.2505313 A 14.861555,5.0019465 0 0 1 37.651392,11.43231 14.861555,5.0019465 0 0 1 22.789826,16.434434 14.861555,5.0019465 0 0 1 7.9282595,11.43231 14.861555,5.0019465 0 0 1 22.789826,6.4301848 Z"/>
    <path style="fill:#a2a2a2;fill-opacity:1;stroke:#000000;stroke-width:0.265;stroke-dasharray:none;stroke-opacity:1" d="m 22.789838,6.4301848 c 8.208021,-2.2e-6 14.861858,2.239555 14.861566,5.0021252 2.92e-4,2.76257 -6.653545,5.002126 -14.861566,5.002124 C 14.581816,16.434436 7.9279793,14.19488 7.9282715,11.43231 7.9279793,8.6697398 14.581816,6.4301826 22.789838,6.4301848 Z"/>
    <text xml:space="preserve" style="font-size:4.23333px;font-family:sans-serif;text-align:center;text-anchor:middle;fill:none;fill-opacity:1;stroke:#ff0000;stroke-width:0.330263;stroke-dasharray:none;stroke-dashoffset:0;stroke-opacity:1" x="32.279465" y="3.0936296"><tspan style="font-size:4.23333px;fill:#000000;fill-opacity:1;stroke:none;stroke-width:0.330263;stroke-dasharray:none" x="32.279465" y="3.0936296">26.0 in</tspan></text>
    <text xml:space="preserve" style="font-size:4.23333px;font-family:sans-serif;text-align:center;text-anchor:middle;fill:none;fill-opacity:1;stroke:#ff0000;stroke-width:0.330263;stroke-dasharray:none;stroke-dashoffset:0;stroke-opacity:1" x="8.1974916" y="4.5099554"><tspan style="font-size:4.23333px;fill:#000000;fill-opacity:1;stroke:none;stroke-width:0.330263;stroke-dasharray:none" x="8.1974916" y="4.5099554">34.0 in</tspan></text>
    <text xml:space="preserve" style="font-size:4.23333px;font-family:sans-serif;text-align:center;text-anchor:middle;fill:none;fill-opacity:1;stroke:#ff0000;stroke-width:0.330263;stroke-dasharray:none;stroke-dashoffset:0;stroke-opacity:1" x="40.483223" y="-31.231859" transform="rotate(90)"><tspan style="font-size:4.23333px;fill:#000000;fill-opacity:1;stroke:none;stroke-width:0.330263;stroke-dasharray:none" x="40.483223" y="-31.231859">60.0 in</tspan></text>
    <path style="fill:url(#linearGradient4);stroke:#000000;stroke-width:0.265;stroke-dasharray:none;stroke-opacity:1" d="m 4.212869,11.43231 c -3.643e-4,3.453212 8.31693,6.252658 18.576957,6.252656 10.260026,2e-6 18.57732,-2.799444 18.576956,-6.252656 v 0 l 2.54e-4,49.385141 -2e-6,2e-6 c 0,3.453123 -8.31718,6.252433 -18.576942,6.252433 -10.259762,0 -18.5769428,-2.79931 -18.5769428,-6.252433 v -2e-6 z"/>
    <path style="fill:none;fill-opacity:1;stroke:#ff0000;stroke-width:0.265;stroke-dasharray:1.05999847,1.05999847;stroke-dashoffset:0;stroke-opacity:1" d="M 7.9282595,11.43231 37.651394,11.432121"/>
    <path style="fill:none;fill-opacity:1;stroke:#ff0000;stroke-width:0.265;stroke-dasharray:1.05999847,1.05999847;stroke-dashoffset:0;stroke-opacity:1" d="M 22.789826,17.684966 V 5.1796533"/>
    <path style="fill:none;fill-opacity:1;stroke:#ff0000;stroke-width:0.265;stroke-dasharray:1.05999847,1.05999847;stroke-dashoffset:0;stroke-opacity:1" d="m 35.597153,15.961556 2.54e-4,49.385141"/>
    <path style="fill:none;fill-opacity:1;stroke:#000000;stroke-width:0.265;stroke-dasharray:none;stroke-dashoffset:0;stroke-opacity:1;marker-end:url(#Triangle)" d="M 8.3936216,5.1717392 21.840226,9.0835977"/>
    <path style="fill:none;fill-opacity:1;stroke:#000000;stroke-width:0.265;stroke-dasharray:none;stroke-dashoffset:0;stroke-opacity:1;marker-end:url(#Triangle)" d="m 32.060551,4.6347505 -1.44287,5.5309985"/>
  </g>
</svg>