<svg width="1653" height="995" xmlns="http://www.w3.org/2000/svg" xmlns:xlink="http://www.w3.org/1999/xlink" overflow="hidden"><defs><clipPath id="clip0"><rect x="1287" y="416" width="1653" height="995"/></clipPath><clipPath id="clip1"><rect x="1287" y="416" width="1650" height="992"/></clipPath><clipPath id="clip2"><rect x="1418" y="466" width="1472" height="839"/></clipPath><clipPath id="clip3"><rect x="1287" y="416" width="1650" height="992"/></clipPath><clipPath id="clip4"><rect x="1287" y="416" width="1650" height="992"/></clipPath><clipPath id="clip5"><rect x="1287" y="416" width="1650" height="992"/></clipPath><clipPath id="clip6"><rect x="1287" y="416" width="1650" height="992"/></clipPath><clipPath id="clip7"><rect x="1287" y="416" width="1650" height="992"/></clipPath><clipPath id="clip8"><rect x="1287" y="416" width="1650" height="992"/></clipPath><clipPath id="clip9"><rect x="1287" y="416" width="1650" height="992"/></clipPath><clipPath id="clip10"><rect x="1287" y="416" width="1650" height="992"/></clipPath><clipPath id="clip11"><rect x="1287" y="416" width="1650" height="992"/></clipPath><clipPath id="clip12"><rect x="1287" y="416" width="1650" height="992"/></clipPath><clipPath id="clip13"><rect x="1287" y="416" width="1650" height="992"/></clipPath><clipPath id="clip14"><rect x="1287" y="416" width="1650" height="992"/></clipPath><clipPath id="clip15"><rect x="1287" y="416" width="1650" height="992"/></clipPath><clipPath id="clip16"><rect x="1287" y="416" width="1650" height="992"/></clipPath></defs><g clip-path="url(#clip0)" transform="translate(-1287 -416)"><rect x="1288" y="417" width="1650" height="992" fill="#FFFFFF"/><g clip-path="url(#clip1)"><path d="M1418.5 1163.54 2887.5 1163.54M1418.5 1023.53 2887.5 1023.53M1418.5 884.529 2887.5 884.529M1418.5 745.525 2887.5 745.525M1418.5 606.52 2887.5 606.52M1418.5 466.5 2887.5 466.5" stroke="#D9D9D9" stroke-width="3.4375" stroke-linejoin="round" stroke-miterlimit="10" fill="none"/></g><g clip-path="url(#clip2)"><path d="M1503.05 1282.04 1579.05 1282.04 1579.05 1302 1503.05 1302ZM1747.06 1261.04 1824.06 1261.04 1824.06 1302 1747.06 1302ZM1992.07 1219.04 2069.07 1219.04 2069.07 1302 1992.07 1302ZM2237.07 1135.04 2314.08 1135.04 2314.08 1302 2237.07 1302ZM2482.08 968.032 2559.08 968.032 2559.08 1302 2482.08 1302ZM2727.09 634.021 2803.09 634.021 2803.09 1302 2727.09 1302Z" fill="#70AD47"/></g><g clip-path="url(#clip3)"><path d="M1418.5 1302.5 2887.5 1302.5" stroke="#D9D9D9" stroke-width="3.4375" stroke-linejoin="round" stroke-miterlimit="10" fill="none" fill-rule="evenodd"/></g><g clip-path="url(#clip4)"><text fill="#595959" font-family="Calibri,Calibri_MSFontService,sans-serif" font-weight="400" font-size="41" transform="matrix(1 0 0 1 1359.51 1314)">0</text></g><g clip-path="url(#clip5)"><text fill="#595959" font-family="Calibri,Calibri_MSFontService,sans-serif" font-weight="400" font-size="41" transform="matrix(1 0 0 1 1338.61 1175)">20</text></g><g clip-path="url(#clip6)"><text fill="#595959" font-family="Calibri,Calibri_MSFontService,sans-serif" font-weight="400" font-size="41" transform="matrix(1 0 0 1 1338.61 1036)">40</text></g><g clip-path="url(#clip7)"><text fill="#595959" font-family="Calibri,Calibri_MSFontService,sans-serif" font-weight="400" font-size="41" transform="matrix(1 0 0 1 1338.61 896)">60</text></g><g clip-path="url(#clip8)"><text fill="#595959" font-family="Calibri,Calibri_MSFontService,sans-serif" font-weight="400" font-size="41" transform="matrix(1 0 0 1 1338.61 757)">80</text></g><g clip-path="url(#clip9)"><text fill="#595959" font-family="Calibri,Calibri_MSFontService,sans-serif" font-weight="400" font-size="41" transform="matrix(1 0 0 1 1317.71 618)">100</text></g><g clip-path="url(#clip10)"><text fill="#595959" font-family="Calibri,Calibri_MSFontService,sans-serif" font-weight="400" font-size="41" transform="matrix(1 0 0 1 1317.71 478)">120</text></g><g clip-path="url(#clip11)"><text fill="#595959" font-family="Calibri,Calibri_MSFontService,sans-serif" font-weight="400" font-size="41" transform="matrix(1 0 0 1 1530.63 1368)">0</text></g><g clip-path="url(#clip12)"><text fill="#595959" font-family="Calibri,Calibri_MSFontService,sans-serif" font-weight="400" font-size="41" transform="matrix(1 0 0 1 1775.43 1368)">1</text></g><g clip-path="url(#clip13)"><text fill="#595959" font-family="Calibri,Calibri_MSFontService,sans-serif" font-weight="400" font-size="41" transform="matrix(1 0 0 1 2020.24 1368)">2</text></g><g clip-path="url(#clip14)"><text fill="#595959" font-family="Calibri,Calibri_MSFontService,sans-serif" font-weight="400" font-size="41" transform="matrix(1 0 0 1 2265.04 1368)">3</text></g><g clip-path="url(#clip15)"><text fill="#595959" font-family="Calibri,Calibri_MSFontService,sans-serif" font-weight="400" font-size="41" transform="matrix(1 0 0 1 2509.84 1368)">4</text></g><g clip-path="url(#clip16)"><text fill="#595959" font-family="Calibri,Calibri_MSFontService,sans-serif" font-weight="400" font-size="41" transform="matrix(1 0 0 1 2754.65 1368)">5</text></g><rect x="1288.5" y="417.5" width="1650" height="992" stroke="#D9D9D9" stroke-width="3.4375" stroke-linejoin="round" stroke-miterlimit="10" fill="none"/></g></svg>