<svg width="1653" height="995" xmlns="http://www.w3.org/2000/svg" xmlns:xlink="http://www.w3.org/1999/xlink" overflow="hidden"><defs><clipPath id="clip0"><rect x="1785" y="1086" width="1653" height="995"/></clipPath><clipPath id="clip1"><rect x="1786" y="1086" width="1650" height="993"/></clipPath><clipPath id="clip2"><rect x="1946" y="1160" width="1490" height="839"/></clipPath><clipPath id="clip3"><rect x="1786" y="1086" width="1650" height="993"/></clipPath><clipPath id="clip4"><rect x="1786" y="1086" width="1650" height="993"/></clipPath><clipPath id="clip5"><rect x="1786" y="1086" width="1650" height="993"/></clipPath><clipPath id="clip6"><rect x="1786" y="1086" width="1650" height="993"/></clipPath><clipPath id="clip7"><rect x="1786" y="1086" width="1650" height="993"/></clipPath><clipPath id="clip8"><rect x="1786" y="1086" width="1650" height="993"/></clipPath><clipPath id="clip9"><rect x="1786" y="1086" width="1650" height="993"/></clipPath><clipPath id="clip10"><rect x="1786" y="1086" width="1650" height="993"/></clipPath><clipPath id="clip11"><rect x="1786" y="1086" width="1650" height="993"/></clipPath><clipPath id="clip12"><rect x="1786" y="1086" width="1650" height="993"/></clipPath><clipPath id="clip13"><rect x="1786" y="1086" width="1650" height="993"/></clipPath><clipPath id="clip14"><rect x="1786" y="1086" width="1650" height="993"/></clipPath><clipPath id="clip15"><rect x="1786" y="1086" width="1650" height="993"/></clipPath><clipPath id="clip16"><rect x="1786" y="1086" width="1650" height="993"/></clipPath><clipPath id="clip17"><rect x="1786" y="1086" width="1650" height="993"/></clipPath><clipPath id="clip18"><rect x="1786" y="1086" width="1650" height="993"/></clipPath></defs><g clip-path="url(#clip0)" transform="translate(-1785 -1086)"><rect x="1786" y="1087" width="1650" height="992" fill="#FFFFFF"/><g clip-path="url(#clip1)"><path d="M1946.5 1891.56 3436.5 1891.56M1946.5 1786.56 3436.5 1786.56M1946.5 1682.56 3436.5 1682.56M1946.5 1577.55 3436.5 1577.55M1946.5 1473.55 3436.5 1473.55M1946.5 1368.55 3436.5 1368.55M1946.5 1264.54 3436.5 1264.54M1946.5 1160.5 3436.5 1160.5" stroke="#D9D9D9" stroke-width="3.4375" stroke-linejoin="round" stroke-miterlimit="10" fill="none"/></g><g clip-path="url(#clip2)"><path d="M2280.07 1964.06 2358.08 1964.06 2358.08 1996 2280.07 1996ZM2528.08 1870.06 2606.09 1870.06 2606.09 1996 2528.08 1996ZM2777.09 1714.06 2854.09 1714.06 2854.09 1996 2777.09 1996ZM3025.1 1494.05 3103.1 1494.05 3103.1 1996 3025.1 1996ZM3273.11 1212.04 3351.11 1212.04 3351.11 1996 3273.11 1996Z" fill="#4472C4"/></g><g clip-path="url(#clip3)"><path d="M1946.5 1995.5 3436.5 1995.5" stroke="#D9D9D9" stroke-width="3.4375" stroke-linejoin="round" stroke-miterlimit="10" fill="none" fill-rule="evenodd"/></g><g clip-path="url(#clip4)"><text fill="#595959" font-family="Calibri,Calibri_MSFontService,sans-serif" font-weight="400" font-size="41" transform="matrix(1 0 0 1 1887.46 2007)">0</text></g><g clip-path="url(#clip5)"><text fill="#595959" font-family="Calibri,Calibri_MSFontService,sans-serif" font-weight="400" font-size="41" transform="matrix(1 0 0 1 1866.56 1903)">10</text></g><g clip-path="url(#clip6)"><text fill="#595959" font-family="Calibri,Calibri_MSFontService,sans-serif" font-weight="400" font-size="41" transform="matrix(1 0 0 1 1866.56 1798)">20</text></g><g clip-path="url(#clip7)"><text fill="#595959" font-family="Calibri,Calibri_MSFontService,sans-serif" font-weight="400" font-size="41" transform="matrix(1 0 0 1 1866.56 1694)">30</text></g><g clip-path="url(#clip8)"><text fill="#595959" font-family="Calibri,Calibri_MSFontService,sans-serif" font-weight="400" font-size="41" transform="matrix(1 0 0 1 1866.56 1589)">40</text></g><g clip-path="url(#clip9)"><text fill="#595959" font-family="Calibri,Calibri_MSFontService,sans-serif" font-weight="400" font-size="41" transform="matrix(1 0 0 1 1866.56 1485)">50</text></g><g clip-path="url(#clip10)"><text fill="#595959" font-family="Calibri,Calibri_MSFontService,sans-serif" font-weight="400" font-size="41" transform="matrix(1 0 0 1 1866.56 1381)">60</text></g><g clip-path="url(#clip11)"><text fill="#595959" font-family="Calibri,Calibri_MSFontService,sans-serif" font-weight="400" font-size="41" transform="matrix(1 0 0 1 1866.56 1276)">70</text></g><g clip-path="url(#clip12)"><text fill="#595959" font-family="Calibri,Calibri_MSFontService,sans-serif" font-weight="400" font-size="41" transform="matrix(1 0 0 1 1866.56 1172)">80</text></g><g clip-path="url(#clip13)"><text fill="#595959" font-family="Calibri,Calibri_MSFontService,sans-serif" font-weight="400" font-size="41" transform="matrix(1 0 0 1 2060.32 2061)">0</text></g><g clip-path="url(#clip14)"><text fill="#595959" font-family="Calibri,Calibri_MSFontService,sans-serif" font-weight="400" font-size="41" transform="matrix(1 0 0 1 2308.61 2061)">1</text></g><g clip-path="url(#clip15)"><text fill="#595959" font-family="Calibri,Calibri_MSFontService,sans-serif" font-weight="400" font-size="41" transform="matrix(1 0 0 1 2556.9 2061)">2</text></g><g clip-path="url(#clip16)"><text fill="#595959" font-family="Calibri,Calibri_MSFontService,sans-serif" font-weight="400" font-size="41" transform="matrix(1 0 0 1 2805.19 2061)">3</text></g><g clip-path="url(#clip17)"><text fill="#595959" font-family="Calibri,Calibri_MSFontService,sans-serif" font-weight="400" font-size="41" transform="matrix(1 0 0 1 3053.47 2061)">4</text></g><g clip-path="url(#clip18)"><text fill="#595959" font-family="Calibri,Calibri_MSFontService,sans-serif" font-weight="400" font-size="41" transform="matrix(1 0 0 1 3301.76 2061)">5</text></g><rect x="1786.5" y="1087.5" width="1650" height="992" stroke="#D9D9D9" stroke-width="3.4375" stroke-linejoin="round" stroke-miterlimit="10" fill="none"/></g></svg>