<?xml version="1.0" encoding="UTF-8" standalone="no"?>
<svg
   style="font-style:normal;font-weight:normal;font-size:12px;font-family:Dialog;color-interpolation:auto;fill:#000000;fill-opacity:1;stroke:#000000;stroke-width:1;stroke-linecap:square;stroke-linejoin:miter;stroke-miterlimit:10;stroke-dasharray:none;stroke-dashoffset:0;stroke-opacity:1;color-rendering:auto;image-rendering:auto;shape-rendering:auto;text-rendering:auto"
   contentScriptType="text/ecmascript"
   preserveAspectRatio="xMidYMid meet"
   zoomAndPan="magnify"
   version="1.0"
   contentStyleType="text/css"
   id="svg228"
   sodipodi:docname="sine-graph-long.svg"
   width="150"
   height="150"
   inkscape:version="1.1 (c68e22c387, 2021-05-23)"
   xmlns:inkscape="http://www.inkscape.org/namespaces/inkscape"
   xmlns:sodipodi="http://sodipodi.sourceforge.net/DTD/sodipodi-0.dtd"
   xmlns="http://www.w3.org/2000/svg"
   xmlns:svg="http://www.w3.org/2000/svg">
  <sodipodi:namedview
     id="namedview230"
     pagecolor="#ffffff"
     bordercolor="#666666"
     borderopacity="1.0"
     inkscape:pageshadow="2"
     inkscape:pageopacity="0.0"
     inkscape:pagecheckerboard="0"
     showgrid="false"
     units="mm"
     inkscape:zoom="6.8400796"
     inkscape:cx="71.344199"
     inkscape:cy="73.390959"
     inkscape:window-width="2560"
     inkscape:window-height="1346"
     inkscape:window-x="-11"
     inkscape:window-y="-11"
     inkscape:window-maximized="1"
     inkscape:current-layer="svg228" />
  <!--Generated by the Batik Graphics2D SVG Generator-->
  <defs
     id="genericDefs">
    <defs
       id="defs1">
      <clipPath
         clipPathUnits="userSpaceOnUse"
         id="clipPath1">
        <path
           d="M 0,0 H 490 V 490 H 0 Z"
           id="path3" />
      </clipPath>
      <clipPath
         clipPathUnits="userSpaceOnUse"
         id="clipPath2">
        <path
           d="M 17,6.0434 V 483 H 479.9744 V 6.0434 Z"
           id="path6" />
      </clipPath>
      <clipPath
         clipPathUnits="userSpaceOnUse"
         id="clipPath3">
        <path
           d="m 285,270 v 15 h 17 v -15 z"
           id="path9" />
      </clipPath>
      <clipPath
         clipPathUnits="userSpaceOnUse"
         id="clipPath4">
        <path
           d="M 6,5 H 496 V 495 H 6 Z"
           id="path12" />
      </clipPath>
      <clipPath
         clipPathUnits="userSpaceOnUse"
         id="clipPath5">
        <path
           d="m 10,258 v 16 h 9 v -16 z"
           id="path15" />
      </clipPath>
      <clipPath
         clipPathUnits="userSpaceOnUse"
         id="clipPath6">
        <path
           d="m 58,258 v 16 h 9 v -16 z"
           id="path18" />
      </clipPath>
      <clipPath
         clipPathUnits="userSpaceOnUse"
         id="clipPath7">
        <path
           d="m 91,478 v 16 h 9 v -16 z"
           id="path21" />
      </clipPath>
      <clipPath
         clipPathUnits="userSpaceOnUse"
         id="clipPath8">
        <path
           d="m 79,360 v 16 h 9 v -16 z"
           id="path24" />
      </clipPath>
    </defs>
  </defs>
  <g
     transform="matrix(0.30346472,0,0,0.30346472,-0.11224358,-0.2753374)"
     style="font-family:'Times New Roman';color-interpolation:linearRGB;fill:#78000e;stroke:#78000e;stroke-width:1.5;stroke-linecap:butt;stroke-linejoin:round;color-rendering:optimizeQuality;image-rendering:optimizeQuality;text-rendering:optimizeLegibility"
     id="g30">
    <path
       d="m 20,245.0084 2.3973,19.385 2.0859,16.764 2.3459,18.6256 2.3613,18.3878 2.3502,17.8201 2.1789,15.9916 2.2561,15.9223 2.3332,15.6854 2.3258,14.7446 2.3924,14.1394 2.1072,11.5152 2.3722,11.8326 2.3819,10.5997 2.2955,8.933 2.0845,6.9744 2.4786,6.8328 2.0998,4.5121 2.4425,3.7426 1.081,1.1326 1.081,0.8088 1.186,0.5135 1.1861,0.1214 1.1294,-0.2489 1.1293,-0.6043 1.1784,-1.0081 1.1785,-1.3923 2.1642,-3.5497 2.3345,-5.2494 2.4249,-6.9779 2.1108,-7.3023 2.2798,-9.1242 2.3552,-10.7173 2.3041,-11.6874 2.2294,-12.3706 2.4753,-14.8701 2.2242,-14.2938 2.3748,-16.1377 2.152,-15.3163 2.3526,-17.3961 2.2136,-16.8905 2.3139,-18.0878 2.2623,-18.0028 2.3683,-19.065 2.281,-18.4556 2.3327,-18.8487 2.3133,-18.5488 2.1258,-16.8169 2.4363,-18.8865 2.1791,-16.4378 2.3233,-16.9449 2.2238,-15.5589 2.4691,-16.4077 2.1382,-13.3811 2.4268,-14.1616 2.2117,-11.8764 2.4194,-11.7816 2.0874,-9.0893 2.3774,-9.0742 2.2964,-7.4191 2.295,-6.0458 2.2864,-4.6255 2.1966,-3.1026 1.1873,-1.1231 1.1873,-0.732 1.1316,-0.3323 1.1316,0.0246 1.1909,0.4115 1.1909,0.8062 1.0781,1.069 1.0781,1.3899 2.3829,4.2003 2.2825,5.4575 2.2769,6.8086 2.3782,8.5212 2.1904,9.0739 2.2433,10.4557 2.4769,12.8365 2.2426,12.7166 2.2935,13.9991 2.3324,15.1779 2.144,14.7053 2.2854,16.3776 2.2679,16.8713 2.4261,18.6121 2.1408,16.8081 2.4702,19.7157 2.229,17.9756 2.2056,17.8497 2.3717,19.1469 2.3813,19.0492 2.1666,17.0718 2.3009,17.7483 2.2454,16.8377 2.434,17.5954 2.1062,14.5808 2.4189,15.9049 2.274,14.0368 2.252,12.9411 2.2538,11.9166 2.2987,11.0133 2.4366,10.34 2.2341,8.2132 2.2054,6.8691 2.3575,5.9373 2.3523,4.4389 1.0557,1.5015 1.0557,1.1946 1.2506,1.016 1.2505,0.5812 1.0464,0.1515 1.0464,-0.1538 1.2239,-0.5671 1.2239,-0.9834 1.1681,-1.3253 1.168,-1.7008 2.086,-3.9624 2.3458,-5.8503 2.3613,-7.3422 2.3502,-8.7067 2.1789,-9.2698 2.2561,-10.7557 2.3333,-12.2936 2.3257,-13.3602 2.3924,-14.8041 2.1072,-13.8522 2.3722,-16.4102 2.3819,-17.2407 2.2955,-17.2298 2.0845,-16.078 2.4786,-19.5348 2.0997,-16.8026 2.4425,-19.7155 2.1621,-17.4977 2.3721,-19.1275 2.2588,-18.0324 2.3568,-18.506 2.1642,-16.6136 2.3345,-17.402 2.4249,-17.389 2.1108,-14.4742 2.2798,-14.8466 2.3552,-14.3863 2.3041,-13.0484 2.2294,-11.5812 2.4754,-11.5726 2.2241,-9.1769 2.3748,-8.4588 2.152,-6.4239 2.3526,-5.6299 2.2137,-3.9363 1.1569,-1.5241 1.1569,-1.1546 1.1311,-0.7701 1.1312,-0.414 1.1841,-0.0513 1.1842,0.3397 1.1405,0.6962 1.1405,1.0573 2.3327,3.2794 2.3133,4.7158 2.1258,5.5927 2.4363,7.8532 2.1791,8.287 2.3234,10.0947 2.2236,10.8206 2.4693,13.2643 2.1381,12.4766 2.4268,15.1854 2.2118,14.7024 2.4193,16.9202 2.0874,15.2156 2.3774,17.919 2.2964,17.7974 2.295,18.153 2.2865,18.3384 2.1965,17.749 2.3746,19.213 2.2632,18.2217 2.3818,18.9593 2.1562,16.8651 2.3829,18.1944 2.2825,16.8795 2.2769,16.1993 2.3782,16.1306 2.1905,14.0512 2.2432,13.5037 2.4769,13.7714 2.2426,11.3576 2.2935,10.4495 2.3325,9.3513 2.1439,7.4095 2.2854,6.6003 2.2679,5.1865 2.4261,4.0085 1.0704,1.2553 1.0705,0.9384 1.235,0.6873 1.2351,0.2624 1.1145,-0.1283 1.1146,-0.4745 1.1028,-0.8095 1.1027,-1.1465 2.3717,-3.5995 2.3813,-5.1499 2.1666,-5.9938 2.3009,-7.6915 2.2454,-8.7778 2.434,-10.8727 2.1062,-10.4904 2.419,-13.2125 2.2739,-13.4769 2.252,-14.2728 2.2538,-15.1207 2.2987,-16.1897 2.4366,-17.8946 2.2341,-16.9658 2.2054,-17.1701 2.3575,-18.7064 2.3524,-18.9079 2.2178,-17.9369"
       style="fill:none"
       clip-path="url(#clipPath2)"
       id="path28" />
  </g>
  <g
     transform="matrix(0.30346472,0,0,0.30346472,-0.11224358,-0.2753374)"
     style="font-family:'Times New Roman';color-interpolation:linearRGB;stroke-linecap:butt;stroke-linejoin:round;color-rendering:optimizeQuality;image-rendering:optimizeQuality;text-rendering:optimizeLegibility"
     id="g34">
    <path
       d="M 20,245.0084 H 475.9744"
       style="fill:none"
       clip-path="url(#clipPath1)"
       id="path32" />
  </g>
  <g
     transform="matrix(0.30346472,0,0,0.30346472,-0.11224358,-0.2753374)"
     style="font-family:'Times New Roman';color-interpolation:linearRGB;color-rendering:optimizeQuality;image-rendering:optimizeQuality;text-rendering:optimizeLegibility"
     id="g42">
    <path
       d="m 20,245.0084 v 5"
       style="fill:none"
       clip-path="url(#clipPath1)"
       id="path40" />
  </g>
  <g
     style="font-family:'Times New Roman';color-interpolation:linearRGB;color-rendering:optimizeQuality;image-rendering:optimizeQuality;text-rendering:optimizeSpeed"
     id="g46"
     transform="matrix(0.30346472,0,0,0.30346472,-1.9330319,-1.792661)">
    <path
       d="m 22.4531,266.8906 h -9.9062 v -0.7812 h 9.9062 z"
       style="stroke:none"
       clip-path="url(#clipPath5)"
       id="path44" />
  </g>
  <g
     style="font-family:'Times New Roman';color-interpolation:linearRGB;color-rendering:optimizeQuality;image-rendering:optimizeQuality;text-rendering:optimizeLegibility"
     id="g50"
     transform="matrix(0.30346472,0,0,0.30346472,-1.9330319,-1.792661)">
    <path
       d="m 22.7656,262.0469 2.4063,-1.1875 h 0.25 v 8.3906 q 0,0.8281 0.0625,1.0469 0.0781,0.2031 0.2968,0.3125 0.2188,0.1094 0.8907,0.125 V 271 h -3.7344 v -0.2656 q 0.7031,-0.0156 0.9063,-0.125 0.2031,-0.1094 0.2812,-0.2813 0.0781,-0.1875 0.0781,-1.0781 v -5.3594 q 0,-1.0937 -0.0625,-1.3906 -0.0625,-0.2344 -0.2031,-0.3438 -0.125,-0.1093 -0.3125,-0.1093 -0.2812,0 -0.75,0.2187 z M 31.375,266 q -1.1719,-0.9688 -1.5156,-1.5469 -0.3438,-0.5937 -0.3438,-1.2187 0,-0.9688 0.75,-1.6719 0.75,-0.7031 1.9844,-0.7031 1.2031,0 1.9375,0.6562 0.7344,0.6563 0.7344,1.4844 0,0.5625 -0.4063,1.1406 -0.3906,0.5782 -1.6406,1.3594 1.2812,1 1.7031,1.5625 0.5625,0.75 0.5625,1.5781 0,1.0469 -0.7968,1.7969 -0.7969,0.7344 -2.0938,0.7344 -1.4219,0 -2.2188,-0.875 -0.625,-0.7188 -0.625,-1.5625 0,-0.6563 0.4376,-1.2969 0.4531,-0.6563 1.5312,-1.4375 z m 1.1562,-0.7812 q 0.875,-0.7969 1.1094,-1.25 0.2344,-0.4688 0.2344,-1.0469 0,-0.7657 -0.4375,-1.2031 -0.4219,-0.4376 -1.1719,-0.4376 -0.75,0 -1.2187,0.4376 -0.4688,0.4374 -0.4688,1.0156 0,0.375 0.1875,0.7656 0.2032,0.375 0.5625,0.7188 z m -0.8124,1.0624 q -0.6094,0.5 -0.9063,1.1094 -0.2813,0.6094 -0.2813,1.3125 0,0.9375 0.5157,1.5157 0.5156,0.5624 1.3125,0.5624 0.7968,0 1.2656,-0.4374 0.4844,-0.4532 0.4844,-1.0938 0,-0.5312 -0.2813,-0.9531 -0.5156,-0.7657 -2.1093,-2.0157 z m 4.8281,-0.1874 q 0,-1.7032 0.5,-2.9219 0.5156,-1.2344 1.375,-1.8281 0.6562,-0.4844 1.3593,-0.4844 1.1407,0 2.0469,1.1718 1.1407,1.4376 1.1407,3.9063 0,1.7344 -0.5,2.9375 -0.5,1.2031 -1.2813,1.75 -0.7656,0.5469 -1.4844,0.5469 -1.4219,0 -2.3593,-1.6719 -0.7969,-1.4219 -0.7969,-3.4062 z m 1.4375,0.1874 q 0,2.0469 0.5,3.3438 0.4218,1.0938 1.25,1.0938 0.3906,0 0.8125,-0.3594 0.4219,-0.3594 0.6406,-1.1875 0.3437,-1.2657 0.3437,-3.5625 0,-1.6875 -0.3593,-2.8282 -0.25,-0.8437 -0.6719,-1.1874 -0.2969,-0.25 -0.7344,-0.25 -0.4844,0 -0.875,0.4531 -0.5312,0.6093 -0.7187,1.9219 -0.1875,1.2968 -0.1875,2.5624 z"
       style="stroke:none"
       clip-path="url(#clipPath4)"
       id="path48" />
  </g>
  <g
     transform="matrix(0.30346472,0,0,0.30346472,-0.11224358,-0.2753374)"
     style="font-family:'Times New Roman';color-interpolation:linearRGB;color-rendering:optimizeQuality;image-rendering:optimizeQuality;text-rendering:optimizeLegibility"
     id="g54">
    <path
       d="m 65.5974,245.0084 v 5"
       style="fill:none"
       clip-path="url(#clipPath1)"
       id="path52" />
  </g>
  <g
     style="font-family:'Times New Roman';color-interpolation:linearRGB;color-rendering:optimizeQuality;image-rendering:optimizeQuality;text-rendering:optimizeSpeed"
     id="g58"
     transform="matrix(0.30346472,0,0,0.30346472,-1.9330319,-1.792661)">
    <path
       d="m 70.4531,266.8906 h -9.9062 v -0.7812 h 9.9062 z"
       style="stroke:none"
       clip-path="url(#clipPath6)"
       id="path56" />
  </g>
  <g
     style="font-family:'Times New Roman';color-interpolation:linearRGB;color-rendering:optimizeQuality;image-rendering:optimizeQuality;text-rendering:optimizeLegibility"
     id="g62"
     transform="matrix(0.30346472,0,0,0.30346472,-1.9330319,-1.792661)">
    <path
       d="m 69.7969,271.2031 v -0.2656 q 0.9531,-0.0156 1.7656,-0.4375 0.8281,-0.4375 1.5937,-1.5 0.7657,-1.0781 1.0626,-2.3594 -1.1563,0.7344 -2.0782,0.7344 -1.0468,0 -1.7968,-0.7969 -0.75,-0.8125 -0.75,-2.1562 0,-1.2969 0.75,-2.3281 0.8906,-1.2344 2.3437,-1.2344 1.2344,0 2.0937,1.0156 1.0782,1.25 1.0782,3.0938 0,1.6562 -0.8125,3.0937 -0.8125,1.4219 -2.2657,2.3594 -1.1874,0.7812 -2.5781,0.7812 z m 4.5312,-5.1093 q 0.1407,-0.9532 0.1407,-1.5157 0,-0.7187 -0.25,-1.5312 -0.2344,-0.8281 -0.6876,-1.2657 -0.4374,-0.4374 -1,-0.4374 -0.6562,0 -1.1562,0.5937 -0.4844,0.5781 -0.4844,1.7344 0,1.5469 0.6563,2.4062 0.4843,0.6407 1.1719,0.6407 0.3437,0 0.7968,-0.1563 0.4688,-0.1719 0.8125,-0.4687 z m 2.7188,0 q 0,-1.7032 0.5,-2.9219 0.5156,-1.2344 1.375,-1.8281 0.6562,-0.4844 1.3593,-0.4844 1.1407,0 2.0469,1.1718 1.1407,1.4376 1.1407,3.9063 0,1.7344 -0.5,2.9375 -0.5,1.2031 -1.2813,1.75 -0.7656,0.5469 -1.4844,0.5469 -1.4219,0 -2.3593,-1.6719 -0.7969,-1.4219 -0.7969,-3.4062 z m 1.4375,0.1874 q 0,2.0469 0.5,3.3438 0.4218,1.0938 1.25,1.0938 0.3906,0 0.8125,-0.3594 0.4219,-0.3594 0.6406,-1.1875 0.3437,-1.2657 0.3437,-3.5625 0,-1.6875 -0.3593,-2.8282 -0.25,-0.8437 -0.6719,-1.1874 -0.2969,-0.25 -0.7344,-0.25 -0.4844,0 -0.875,0.4531 -0.5312,0.6093 -0.7187,1.9219 -0.1875,1.2968 -0.1875,2.5624 z"
       style="stroke:none"
       clip-path="url(#clipPath4)"
       id="path60" />
  </g>
  <g
     transform="matrix(0.30346472,0,0,0.30346472,-0.11224358,-0.2753374)"
     style="font-family:'Times New Roman';color-interpolation:linearRGB;color-rendering:optimizeQuality;image-rendering:optimizeQuality;text-rendering:optimizeLegibility"
     id="g68">
    <path
       d="m 111.1949,245.0084 v 5"
       style="fill:none"
       clip-path="url(#clipPath1)"
       id="path64" />
    <path
       d="m 106.5469,264.0938 q 0,-1.7032 0.5,-2.9219 0.5156,-1.2344 1.375,-1.8281 0.6562,-0.4844 1.3593,-0.4844 1.1407,0 2.0469,1.1718 1.1407,1.4376 1.1407,3.9063 0,1.7344 -0.5,2.9375 -0.5,1.2031 -1.2813,1.75 -0.7656,0.5469 -1.4844,0.5469 -1.4219,0 -2.3593,-1.6719 -0.7969,-1.4219 -0.7969,-3.4062 z m 1.4375,0.1874 q 0,2.0469 0.5,3.3438 0.4218,1.0938 1.25,1.0938 0.3906,0 0.8125,-0.3594 0.4219,-0.3594 0.6406,-1.1875 0.3437,-1.2657 0.3437,-3.5625 0,-1.6875 -0.3593,-2.8282 -0.25,-0.8437 -0.6719,-1.1874 -0.2969,-0.25 -0.7344,-0.25 -0.4844,0 -0.875,0.4531 -0.5312,0.6093 -0.7187,1.9219 -0.1875,1.2968 -0.1875,2.5624 z"
       style="stroke:none"
       transform="translate(-6,-5)"
       clip-path="url(#clipPath4)"
       id="path66" />
  </g>
  <g
     transform="matrix(0.30346472,0,0,0.30346472,-0.11224358,-0.2753374)"
     style="font-family:'Times New Roman';color-interpolation:linearRGB;color-rendering:optimizeQuality;image-rendering:optimizeQuality;text-rendering:optimizeLegibility"
     id="g74">
    <path
       d="m 156.7923,245.0084 v 5"
       style="fill:none"
       clip-path="url(#clipPath1)"
       id="path70" />
    <path
       d="m 155.7969,271.2031 v -0.2656 q 0.9531,-0.0156 1.7656,-0.4375 0.8281,-0.4375 1.5937,-1.5 0.7657,-1.0781 1.0626,-2.3594 -1.1563,0.7344 -2.0782,0.7344 -1.0468,0 -1.7968,-0.7969 -0.75,-0.8125 -0.75,-2.1562 0,-1.2969 0.75,-2.3281 0.8906,-1.2344 2.3437,-1.2344 1.2344,0 2.0937,1.0156 1.0782,1.25 1.0782,3.0938 0,1.6562 -0.8125,3.0937 -0.8125,1.4219 -2.2657,2.3594 -1.1874,0.7812 -2.5781,0.7812 z m 4.5312,-5.1093 q 0.1407,-0.9532 0.1407,-1.5157 0,-0.7187 -0.25,-1.5312 -0.2344,-0.8281 -0.6876,-1.2657 -0.4374,-0.4374 -1,-0.4374 -0.6562,0 -1.1562,0.5937 -0.4844,0.5781 -0.4844,1.7344 0,1.5469 0.6563,2.4062 0.4843,0.6407 1.1719,0.6407 0.3437,0 0.7968,-0.1563 0.4688,-0.1719 0.8125,-0.4687 z m 2.7188,0 q 0,-1.7032 0.5,-2.9219 0.5156,-1.2344 1.375,-1.8281 0.6562,-0.4844 1.3593,-0.4844 1.1407,0 2.0469,1.1718 1.1407,1.4376 1.1407,3.9063 0,1.7344 -0.5,2.9375 -0.5,1.2031 -1.2813,1.75 -0.7656,0.5469 -1.4844,0.5469 -1.4219,0 -2.3593,-1.6719 -0.7969,-1.4219 -0.7969,-3.4062 z m 1.4375,0.1874 q 0,2.0469 0.5,3.3438 0.4218,1.0938 1.25,1.0938 0.3906,0 0.8125,-0.3594 0.4219,-0.3594 0.6406,-1.1875 0.3437,-1.2657 0.3437,-3.5625 0,-1.6875 -0.3593,-2.8282 -0.25,-0.8437 -0.6719,-1.1874 -0.2969,-0.25 -0.7344,-0.25 -0.4844,0 -0.875,0.4531 -0.5312,0.6093 -0.7187,1.9219 -0.1875,1.2968 -0.1875,2.5624 z"
       style="stroke:none"
       transform="translate(-6,-5)"
       clip-path="url(#clipPath4)"
       id="path72" />
  </g>
  <g
     transform="matrix(0.30346472,0,0,0.30346472,-0.11224358,-0.2753374)"
     style="font-family:'Times New Roman';color-interpolation:linearRGB;color-rendering:optimizeQuality;image-rendering:optimizeQuality;text-rendering:optimizeLegibility"
     id="g80">
    <path
       d="m 202.3898,245.0084 v 5"
       style="fill:none"
       clip-path="url(#clipPath1)"
       id="path76" />
    <path
       d="m 198.7656,262.0469 2.4063,-1.1875 h 0.25 v 8.3906 q 0,0.8281 0.0625,1.0469 0.0781,0.2031 0.2968,0.3125 0.2188,0.1094 0.8907,0.125 V 271 h -3.7344 v -0.2656 q 0.7031,-0.0156 0.9063,-0.125 0.2031,-0.1094 0.2812,-0.2813 0.0781,-0.1875 0.0781,-1.0781 v -5.3594 q 0,-1.0937 -0.0625,-1.3906 -0.0625,-0.2344 -0.2031,-0.3438 -0.125,-0.1093 -0.3125,-0.1093 -0.2812,0 -0.75,0.2187 z M 207.375,266 q -1.1719,-0.9688 -1.5156,-1.5469 -0.3438,-0.5937 -0.3438,-1.2187 0,-0.9688 0.75,-1.6719 0.75,-0.7031 1.9844,-0.7031 1.2031,0 1.9375,0.6562 0.7344,0.6563 0.7344,1.4844 0,0.5625 -0.4063,1.1406 -0.3906,0.5782 -1.6406,1.3594 1.2812,1 1.7031,1.5625 0.5625,0.75 0.5625,1.5781 0,1.0469 -0.7968,1.7969 -0.7969,0.7344 -2.0938,0.7344 -1.4219,0 -2.2188,-0.875 -0.625,-0.7188 -0.625,-1.5625 0,-0.6563 0.4376,-1.2969 0.4531,-0.6563 1.5312,-1.4375 z m 1.1562,-0.7812 q 0.875,-0.7969 1.1094,-1.25 0.2344,-0.4688 0.2344,-1.0469 0,-0.7657 -0.4375,-1.2031 -0.4219,-0.4376 -1.1719,-0.4376 -0.75,0 -1.2187,0.4376 -0.4688,0.4374 -0.4688,1.0156 0,0.375 0.1875,0.7656 0.2032,0.375 0.5625,0.7188 z m -0.8124,1.0624 q -0.6094,0.5 -0.9063,1.1094 -0.2813,0.6094 -0.2813,1.3125 0,0.9375 0.5157,1.5157 0.5156,0.5624 1.3125,0.5624 0.7968,0 1.2656,-0.4374 0.4844,-0.4532 0.4844,-1.0938 0,-0.5312 -0.2813,-0.9531 -0.5156,-0.7657 -2.1093,-2.0157 z m 4.8281,-0.1874 q 0,-1.7032 0.5,-2.9219 0.5156,-1.2344 1.375,-1.8281 0.6562,-0.4844 1.3593,-0.4844 1.1407,0 2.0469,1.1718 1.1407,1.4376 1.1407,3.9063 0,1.7344 -0.5,2.9375 -0.5,1.2031 -1.2813,1.75 -0.7656,0.5469 -1.4844,0.5469 -1.4219,0 -2.3593,-1.6719 -0.7969,-1.4219 -0.7969,-3.4062 z m 1.4375,0.1874 q 0,2.0469 0.5,3.3438 0.4218,1.0938 1.25,1.0938 0.3906,0 0.8125,-0.3594 0.4219,-0.3594 0.6406,-1.1875 0.3437,-1.2657 0.3437,-3.5625 0,-1.6875 -0.3593,-2.8282 -0.25,-0.8437 -0.6719,-1.1874 -0.2969,-0.25 -0.7344,-0.25 -0.4844,0 -0.875,0.4531 -0.5312,0.6093 -0.7187,1.9219 -0.1875,1.2968 -0.1875,2.5624 z"
       style="stroke:none"
       transform="translate(-6,-5)"
       clip-path="url(#clipPath4)"
       id="path78" />
  </g>
  <g
     transform="matrix(0.30346472,0,0,0.30346472,-0.11224358,-0.2753374)"
     style="font-family:'Times New Roman';color-interpolation:linearRGB;color-rendering:optimizeQuality;image-rendering:optimizeQuality;text-rendering:optimizeLegibility"
     id="g86">
    <path
       d="m 247.9872,245.0084 v 5"
       style="fill:none"
       clip-path="url(#clipPath1)"
       id="path82" />
    <path
       d="M 248.875,269.0938 248.1875,271 h -5.8594 v -0.2656 q 2.5781,-2.3594 3.625,-3.8594 1.0625,-1.5 1.0625,-2.7344 0,-0.9375 -0.5781,-1.5468 -0.5781,-0.6094 -1.3906,-0.6094 -0.7188,0 -1.3125,0.4375 -0.5782,0.4219 -0.8594,1.25 h -0.2656 q 0.1875,-1.3594 0.9375,-2.0781 0.7656,-0.7344 1.8906,-0.7344 1.2187,0 2.0156,0.7812 0.8125,0.7813 0.8125,1.8282 0,0.75 -0.3437,1.5156 -0.5469,1.1875 -1.7657,2.5 -1.8124,2 -2.2812,2.4062 h 2.5938 q 0.7968,0 1.1093,-0.0468 0.3281,-0.0626 0.5781,-0.2344 0.2657,-0.1875 0.4532,-0.5156 z m 2.1406,-8.0313 h 5.3125 v 0.2813 l -3.3125,9.8593 h -0.8125 l 2.9688,-8.9375 h -2.7344 q -0.8281,0 -1.1719,0.1875 -0.625,0.3438 -1,1.0469 l -0.2031,-0.0781 z m 6.5313,5.0313 q 0,-1.7032 0.5,-2.9219 0.5156,-1.2344 1.375,-1.8281 0.6562,-0.4844 1.3593,-0.4844 1.1407,0 2.0469,1.1718 1.1407,1.4376 1.1407,3.9063 0,1.7344 -0.5,2.9375 -0.5,1.2031 -1.2813,1.75 -0.7656,0.5469 -1.4844,0.5469 -1.4219,0 -2.3593,-1.6719 -0.7969,-1.4219 -0.7969,-3.4062 z m 1.4375,0.1874 q 0,2.0469 0.5,3.3438 0.4218,1.0938 1.25,1.0938 0.3906,0 0.8125,-0.3594 0.4219,-0.3594 0.6406,-1.1875 0.3437,-1.2657 0.3437,-3.5625 0,-1.6875 -0.3593,-2.8282 -0.25,-0.8437 -0.6719,-1.1874 -0.2969,-0.25 -0.7344,-0.25 -0.4844,0 -0.875,0.4531 -0.5312,0.6093 -0.7187,1.9219 -0.1875,1.2968 -0.1875,2.5624 z"
       style="stroke:none"
       transform="translate(-6,-5)"
       clip-path="url(#clipPath4)"
       id="path84" />
  </g>
  <g
     transform="matrix(0.30346472,0,0,0.30346472,-0.11224358,-0.2753374)"
     style="font-family:'Times New Roman';color-interpolation:linearRGB;color-rendering:optimizeQuality;image-rendering:optimizeQuality;text-rendering:optimizeLegibility"
     id="g92">
    <path
       d="m 293.5847,245.0084 v 5"
       style="fill:none"
       clip-path="url(#clipPath1)"
       id="path88" />
    <path
       d="m 288.7656,262.9531 q 0.4219,-1 1.0625,-1.5469 0.6563,-0.5468 1.625,-0.5468 1.1875,0 1.8281,0.7812 0.4844,0.5782 0.4844,1.2344 0,1.0938 -1.3594,2.25 0.9063,0.3594 1.375,1.0312 0.4688,0.6563 0.4688,1.5626 0,1.2812 -0.8125,2.2187 -1.0781,1.2344 -3.0937,1.2344 -1.0157,0 -1.375,-0.25 -0.3594,-0.25 -0.3594,-0.5313 0,-0.2187 0.1718,-0.375 0.1719,-0.1562 0.4063,-0.1562 0.1875,0 0.375,0.0625 0.125,0.0312 0.5625,0.2656 0.4531,0.2187 0.6094,0.2656 0.2812,0.0781 0.5781,0.0781 0.75,0 1.2969,-0.5781 0.5625,-0.5781 0.5625,-1.3593 0,-0.5782 -0.25,-1.125 -0.2031,-0.4219 -0.4219,-0.625 -0.3125,-0.2969 -0.875,-0.5313 -0.5469,-0.2344 -1.1094,-0.2344 h -0.2344 v -0.2343 q 0.5782,-0.0626 1.1563,-0.4063 0.5781,-0.3437 0.8437,-0.8281 0.2657,-0.4844 0.2657,-1.0625 0,-0.75 -0.4688,-1.2188 -0.4687,-0.4687 -1.1719,-0.4687 -1.1406,0 -1.9062,1.2187 z m 13.4532,-2.0937 v 0.2812 q -0.9688,0.0938 -1.5782,0.3906 -0.6094,0.2813 -1.2031,0.875 -0.5937,0.5938 -0.9844,1.3282 -0.3906,0.7187 -0.6562,1.7187 1.0469,-0.7187 2.1093,-0.7187 1.0157,0 1.7657,0.8281 0.75,0.8125 0.75,2.0937 0,1.25 -0.75,2.2813 -0.9063,1.2344 -2.4063,1.2344 -1.0156,0 -1.7344,-0.6719 -1.3906,-1.3125 -1.3906,-3.3906 0,-1.3438 0.5313,-2.5313 0.5469,-1.2031 1.5312,-2.1406 1,-0.9375 1.9063,-1.25 0.9062,-0.3281 1.6875,-0.3281 z m -4.5469,5.125 q -0.1407,1 -0.1407,1.6094 0,0.7031 0.2657,1.5312 0.2656,0.8125 0.7656,1.2969 0.375,0.3437 0.9219,0.3437 0.625,0 1.125,-0.5937 0.5156,-0.6094 0.5156,-1.7188 0,-1.25 -0.5,-2.1562 -0.5,-0.9219 -1.4219,-0.9219 -0.2812,0 -0.5937,0.125 -0.3125,0.1094 -0.9375,0.4844 z m 5.875,0.1094 q 0,-1.7032 0.5,-2.9219 0.5156,-1.2344 1.375,-1.8281 0.6562,-0.4844 1.3593,-0.4844 1.1407,0 2.0469,1.1718 1.1407,1.4376 1.1407,3.9063 0,1.7344 -0.5,2.9375 -0.5,1.2031 -1.2813,1.75 -0.7656,0.5469 -1.4844,0.5469 -1.4219,0 -2.3593,-1.6719 -0.7969,-1.4219 -0.7969,-3.4062 z m 1.4375,0.1874 q 0,2.0469 0.5,3.3438 0.4218,1.0938 1.25,1.0938 0.3906,0 0.8125,-0.3594 0.4219,-0.3594 0.6406,-1.1875 0.3437,-1.2657 0.3437,-3.5625 0,-1.6875 -0.3593,-2.8282 -0.25,-0.8437 -0.6719,-1.1874 -0.2969,-0.25 -0.7344,-0.25 -0.4844,0 -0.875,0.4531 -0.5312,0.6093 -0.7187,1.9219 -0.1875,1.2968 -0.1875,2.5624 z"
       style="stroke:none"
       transform="translate(-6,-5)"
       clip-path="url(#clipPath4)"
       id="path90" />
  </g>
  <g
     transform="matrix(0.30346472,0,0,0.30346472,-0.11224358,-0.2753374)"
     style="font-family:'Times New Roman';color-interpolation:linearRGB;color-rendering:optimizeQuality;image-rendering:optimizeQuality;text-rendering:optimizeLegibility"
     id="g98">
    <path
       d="m 339.1821,245.0084 v 5"
       style="fill:none"
       clip-path="url(#clipPath1)"
       id="path94" />
    <path
       d="m 340.9844,267.3438 v 1.0312 h -1.3438 V 271 h -1.2031 v -2.625 h -4.2031 v -0.9375 l 4.6094,-6.5781 h 0.7968 v 6.4844 z m -2.5469,0 v -4.9376 l -3.4844,4.9376 z m 9.5781,-6.2813 -0.5781,1.25 h -2.9844 l -0.6562,1.3281 q 1.9375,0.2969 3.0781,1.4532 0.9688,0.9843 0.9688,2.3437 0,0.7813 -0.3126,1.4531 -0.3124,0.6563 -0.7968,1.125 -0.4844,0.4688 -1.0782,0.75 -0.8437,0.4063 -1.7343,0.4063 -0.8907,0 -1.2969,-0.2969 -0.4062,-0.3125 -0.4062,-0.6719 0,-0.2031 0.1718,-0.3593 0.1719,-0.1563 0.4219,-0.1563 0.1875,0 0.3281,0.0625 0.1406,0.0469 0.4844,0.2969 0.5625,0.375 1.125,0.375 0.8594,0 1.5,-0.6407 0.6406,-0.6562 0.6406,-1.5937 0,-0.8906 -0.5781,-1.6719 -0.5781,-0.7812 -1.5937,-1.2031 -0.7969,-0.3281 -2.1719,-0.3906 l 1.9062,-3.8594 z m 1.5313,5.0313 q 0,-1.7032 0.5,-2.9219 0.5156,-1.2344 1.375,-1.8281 0.6562,-0.4844 1.3593,-0.4844 1.1407,0 2.0469,1.1718 1.1407,1.4376 1.1407,3.9063 0,1.7344 -0.5,2.9375 -0.5,1.2031 -1.2813,1.75 -0.7656,0.5469 -1.4844,0.5469 -1.4219,0 -2.3593,-1.6719 -0.7969,-1.4219 -0.7969,-3.4062 z m 1.4375,0.1874 q 0,2.0469 0.5,3.3438 0.4218,1.0938 1.25,1.0938 0.3906,0 0.8125,-0.3594 0.4219,-0.3594 0.6406,-1.1875 0.3437,-1.2657 0.3437,-3.5625 0,-1.6875 -0.3593,-2.8282 -0.25,-0.8437 -0.6719,-1.1874 -0.2969,-0.25 -0.7344,-0.25 -0.4844,0 -0.875,0.4531 -0.5312,0.6093 -0.7187,1.9219 -0.1875,1.2968 -0.1875,2.5624 z"
       style="stroke:none"
       transform="translate(-6,-5)"
       clip-path="url(#clipPath4)"
       id="path96" />
  </g>
  <g
     transform="matrix(0.30346472,0,0,0.30346472,-0.11224358,-0.2753374)"
     style="font-family:'Times New Roman';color-interpolation:linearRGB;color-rendering:optimizeQuality;image-rendering:optimizeQuality;text-rendering:optimizeLegibility"
     id="g104">
    <path
       d="m 384.7795,245.0084 v 5"
       style="fill:none"
       clip-path="url(#clipPath1)"
       id="path100" />
    <path
       d="m 385.5156,261.0625 -0.5781,1.25 h -2.9844 l -0.6562,1.3281 q 1.9375,0.2969 3.0781,1.4532 0.9688,0.9843 0.9688,2.3437 0,0.7813 -0.3126,1.4531 -0.3124,0.6563 -0.7968,1.125 -0.4844,0.4688 -1.0782,0.75 -0.8437,0.4063 -1.7343,0.4063 -0.8907,0 -1.2969,-0.2969 -0.4062,-0.3125 -0.4062,-0.6719 0,-0.2031 0.1718,-0.3593 0.1719,-0.1563 0.4219,-0.1563 0.1875,0 0.3281,0.0625 0.1406,0.0469 0.4844,0.2969 0.5625,0.375 1.125,0.375 0.8594,0 1.5,-0.6407 0.6406,-0.6562 0.6406,-1.5937 0,-0.8906 -0.5781,-1.6719 -0.5781,-0.7812 -1.5937,-1.2031 -0.7969,-0.3281 -2.1719,-0.3906 l 1.9062,-3.8594 z m 7.9688,6.2813 v 1.0312 h -1.3438 V 271 h -1.2031 v -2.625 h -4.2031 v -0.9375 l 4.6094,-6.5781 h 0.7968 v 6.4844 z m -2.5469,0 v -4.9376 l -3.4844,4.9376 z m 3.6094,-1.25 q 0,-1.7032 0.5,-2.9219 0.5156,-1.2344 1.375,-1.8281 0.6562,-0.4844 1.3593,-0.4844 1.1407,0 2.0469,1.1718 1.1407,1.4376 1.1407,3.9063 0,1.7344 -0.5,2.9375 -0.5,1.2031 -1.2813,1.75 -0.7656,0.5469 -1.4844,0.5469 -1.4219,0 -2.3593,-1.6719 -0.7969,-1.4219 -0.7969,-3.4062 z m 1.4375,0.1874 q 0,2.0469 0.5,3.3438 0.4218,1.0938 1.25,1.0938 0.3906,0 0.8125,-0.3594 0.4219,-0.3594 0.6406,-1.1875 0.3437,-1.2657 0.3437,-3.5625 0,-1.6875 -0.3593,-2.8282 -0.25,-0.8437 -0.6719,-1.1874 -0.2969,-0.25 -0.7344,-0.25 -0.4844,0 -0.875,0.4531 -0.5312,0.6093 -0.7187,1.9219 -0.1875,1.2968 -0.1875,2.5624 z"
       style="stroke:none"
       transform="translate(-6,-5)"
       clip-path="url(#clipPath4)"
       id="path102" />
  </g>
  <g
     transform="matrix(0.30346472,0,0,0.30346472,-0.11224358,-0.2753374)"
     style="font-family:'Times New Roman';color-interpolation:linearRGB;color-rendering:optimizeQuality;image-rendering:optimizeQuality;text-rendering:optimizeLegibility"
     id="g110">
    <path
       d="m 430.377,245.0084 v 5"
       style="fill:none"
       clip-path="url(#clipPath1)"
       id="path106" />
    <path
       d="m 431.7188,260.8594 v 0.2812 q -0.9688,0.0938 -1.5782,0.3906 -0.6094,0.2813 -1.2031,0.875 -0.5937,0.5938 -0.9844,1.3282 -0.3906,0.7187 -0.6562,1.7187 1.0469,-0.7187 2.1093,-0.7187 1.0157,0 1.7657,0.8281 0.75,0.8125 0.75,2.0937 0,1.25 -0.75,2.2813 -0.9063,1.2344 -2.4063,1.2344 -1.0156,0 -1.7344,-0.6719 -1.3906,-1.3125 -1.3906,-3.3906 0,-1.3438 0.5313,-2.5313 0.5469,-1.2031 1.5312,-2.1406 1,-0.9375 1.9063,-1.25 0.9062,-0.3281 1.6875,-0.3281 z m -4.5469,5.125 q -0.1407,1 -0.1407,1.6094 0,0.7031 0.2657,1.5312 0.2656,0.8125 0.7656,1.2969 0.375,0.3437 0.9219,0.3437 0.625,0 1.125,-0.5937 0.5156,-0.6094 0.5156,-1.7188 0,-1.25 -0.5,-2.1562 -0.5,-0.9219 -1.4219,-0.9219 -0.2812,0 -0.5937,0.125 -0.3125,0.1094 -0.9375,0.4844 z m 6.0937,-3.0313 q 0.4219,-1 1.0625,-1.5469 0.6563,-0.5468 1.625,-0.5468 1.1875,0 1.8281,0.7812 0.4844,0.5782 0.4844,1.2344 0,1.0938 -1.3594,2.25 0.9063,0.3594 1.375,1.0312 0.4688,0.6563 0.4688,1.5626 0,1.2812 -0.8125,2.2187 -1.0781,1.2344 -3.0937,1.2344 -1.0157,0 -1.375,-0.25 -0.3594,-0.25 -0.3594,-0.5313 0,-0.2187 0.1718,-0.375 0.1719,-0.1562 0.4063,-0.1562 0.1875,0 0.375,0.0625 0.125,0.0312 0.5625,0.2656 0.4531,0.2187 0.6094,0.2656 0.2812,0.0781 0.5781,0.0781 0.75,0 1.2969,-0.5781 0.5625,-0.5781 0.5625,-1.3593 0,-0.5782 -0.25,-1.125 -0.2031,-0.4219 -0.4219,-0.625 -0.3125,-0.2969 -0.875,-0.5313 -0.5469,-0.2344 -1.1094,-0.2344 h -0.2344 v -0.2343 q 0.5782,-0.0626 1.1563,-0.4063 0.5781,-0.3437 0.8437,-0.8281 0.2657,-0.4844 0.2657,-1.0625 0,-0.75 -0.4688,-1.2188 -0.4687,-0.4687 -1.1719,-0.4687 -1.1406,0 -1.9062,1.2187 z m 7.2813,3.1407 q 0,-1.7032 0.5,-2.9219 0.5156,-1.2344 1.375,-1.8281 0.6562,-0.4844 1.3593,-0.4844 1.1407,0 2.0469,1.1718 1.1407,1.4376 1.1407,3.9063 0,1.7344 -0.5,2.9375 -0.5,1.2031 -1.2813,1.75 -0.7656,0.5469 -1.4844,0.5469 -1.4219,0 -2.3593,-1.6719 -0.7969,-1.4219 -0.7969,-3.4062 z m 1.4375,0.1874 q 0,2.0469 0.5,3.3438 0.4218,1.0938 1.25,1.0938 0.3906,0 0.8125,-0.3594 0.4219,-0.3594 0.6406,-1.1875 0.3437,-1.2657 0.3437,-3.5625 0,-1.6875 -0.3593,-2.8282 -0.25,-0.8437 -0.6719,-1.1874 -0.2969,-0.25 -0.7344,-0.25 -0.4844,0 -0.875,0.4531 -0.5312,0.6093 -0.7187,1.9219 -0.1875,1.2968 -0.1875,2.5624 z"
       style="stroke:none"
       transform="translate(-6,-5)"
       clip-path="url(#clipPath4)"
       id="path108" />
  </g>
  <g
     transform="matrix(0.30346472,0,0,0.30346472,-0.11224358,-0.2753374)"
     style="font-family:'Times New Roman';color-interpolation:linearRGB;color-rendering:optimizeQuality;image-rendering:optimizeQuality;text-rendering:optimizeLegibility"
     id="g116">
    <path
       d="m 475.9744,245.0084 v 5"
       style="fill:none"
       clip-path="url(#clipPath1)"
       id="path112" />
    <path
       d="m 471.5156,261.0625 h 5.3125 v 0.2813 l -3.3125,9.8593 h -0.8125 l 2.9688,-8.9375 h -2.7344 q -0.8281,0 -1.1719,0.1875 -0.625,0.3438 -1,1.0469 l -0.2031,-0.0781 z m 12.8594,8.0313 -0.6875,1.9062 h -5.8594 v -0.2656 q 2.5781,-2.3594 3.625,-3.8594 1.0625,-1.5 1.0625,-2.7344 0,-0.9375 -0.5781,-1.5468 -0.5781,-0.6094 -1.3906,-0.6094 -0.7188,0 -1.3125,0.4375 -0.5782,0.4219 -0.8594,1.25 h -0.2656 q 0.1875,-1.3594 0.9375,-2.0781 0.7656,-0.7344 1.8906,-0.7344 1.2187,0 2.0156,0.7812 0.8125,0.7813 0.8125,1.8282 0,0.75 -0.3437,1.5156 -0.5469,1.1875 -1.7657,2.5 -1.8124,2 -2.2812,2.4062 h 2.5938 q 0.7968,0 1.1093,-0.0468 0.3281,-0.0626 0.5781,-0.2344 0.2657,-0.1875 0.4532,-0.5156 z m 1.1719,-3 q 0,-1.7032 0.5,-2.9219 0.5156,-1.2344 1.375,-1.8281 0.6562,-0.4844 1.3593,-0.4844 1.1407,0 2.0469,1.1718 1.1407,1.4376 1.1407,3.9063 0,1.7344 -0.5,2.9375 -0.5,1.2031 -1.2813,1.75 -0.7656,0.5469 -1.4844,0.5469 -1.4219,0 -2.3593,-1.6719 -0.7969,-1.4219 -0.7969,-3.4062 z m 1.4375,0.1874 q 0,2.0469 0.5,3.3438 0.4218,1.0938 1.25,1.0938 0.3906,0 0.8125,-0.3594 0.4219,-0.3594 0.6406,-1.1875 0.3437,-1.2657 0.3437,-3.5625 0,-1.6875 -0.3593,-2.8282 -0.25,-0.8437 -0.6719,-1.1874 -0.2969,-0.25 -0.7344,-0.25 -0.4844,0 -0.875,0.4531 -0.5312,0.6093 -0.7187,1.9219 -0.1875,1.2968 -0.1875,2.5624 z"
       style="stroke:none"
       transform="translate(-6,-5)"
       clip-path="url(#clipPath4)"
       id="path114" />
  </g>
  <g
     transform="matrix(0.30346472,0,0,0.30346472,-0.11224358,-0.2753374)"
     style="font-family:'Times New Roman';color-interpolation:linearRGB;stroke-linecap:butt;stroke-linejoin:round;color-rendering:optimizeQuality;image-rendering:optimizeQuality;text-rendering:optimizeLegibility"
     id="g120">
    <path
       d="M 111.1949,480 V 10.0434"
       style="fill:none"
       clip-path="url(#clipPath1)"
       id="path118" />
  </g>
  <g
     transform="matrix(0.30346472,0,0,0.30346472,-0.11224358,-0.2753374)"
     style="font-family:'Times New Roman';color-interpolation:linearRGB;color-rendering:optimizeQuality;image-rendering:optimizeQuality;text-rendering:optimizeLegibility"
     id="g124">
    <path
       d="m 111.1949,480 h -5"
       style="fill:none"
       clip-path="url(#clipPath1)"
       id="path122" />
  </g>
  <g
     style="font-family:'Times New Roman';color-interpolation:linearRGB;color-rendering:optimizeQuality;image-rendering:optimizeQuality;text-rendering:optimizeSpeed"
     id="g128"
     transform="matrix(0.30346472,0,0,0.30346472,-1.9330319,-1.792661)">
    <path
       d="m 103.4531,486.8906 h -9.9062 v -0.7812 h 9.9062 z"
       style="stroke:none"
       clip-path="url(#clipPath7)"
       id="path126" />
  </g>
  <g
     style="font-family:'Times New Roman';color-interpolation:linearRGB;color-rendering:optimizeQuality;image-rendering:optimizeQuality;text-rendering:optimizeLegibility"
     id="g132"
     transform="matrix(0.30346472,0,0,0.30346472,-1.9330319,-1.792661)">
    <path
       d="m 103.7656,482.0469 2.4063,-1.1875 h 0.25 v 8.3906 q 0,0.8281 0.0625,1.0469 0.0781,0.2031 0.2968,0.3125 0.2188,0.1094 0.8907,0.125 V 491 h -3.7344 v -0.2656 q 0.7031,-0.0156 0.9063,-0.125 0.2031,-0.1094 0.2812,-0.2813 0.0781,-0.1875 0.0781,-1.0781 v -5.3594 q 0,-1.0937 -0.0625,-1.3906 -0.0625,-0.2344 -0.2031,-0.3438 -0.125,-0.1093 -0.3125,-0.1093 -0.2812,0 -0.75,0.2187 z"
       style="stroke:none"
       clip-path="url(#clipPath4)"
       id="path130" />
  </g>
  <g
     transform="matrix(0.30346472,0,0,0.30346472,-0.11224358,-0.2753374)"
     style="font-family:'Times New Roman';color-interpolation:linearRGB;color-rendering:optimizeQuality;image-rendering:optimizeQuality;text-rendering:optimizeLegibility"
     id="g136">
    <path
       d="m 111.1949,362.5042 h -5"
       style="fill:none"
       clip-path="url(#clipPath1)"
       id="path134" />
  </g>
  <g
     style="font-family:'Times New Roman';color-interpolation:linearRGB;color-rendering:optimizeQuality;image-rendering:optimizeQuality;text-rendering:optimizeSpeed"
     id="g140"
     transform="matrix(0.30346472,0,0,0.30346472,-1.9330319,-1.792661)">
    <path
       d="m 91.4531,368.8906 h -9.9062 v -0.7812 h 9.9062 z"
       style="stroke:none"
       clip-path="url(#clipPath8)"
       id="path138" />
  </g>
  <g
     style="font-family:'Times New Roman';color-interpolation:linearRGB;color-rendering:optimizeQuality;image-rendering:optimizeQuality;text-rendering:optimizeLegibility"
     id="g144"
     transform="matrix(0.30346472,0,0,0.30346472,-1.9330319,-1.792661)">
    <path
       d="m 90.5469,368.0938 q 0,-1.7032 0.5,-2.9219 0.5156,-1.2344 1.375,-1.8281 0.6562,-0.4844 1.3593,-0.4844 1.1407,0 2.0469,1.1718 1.1407,1.4376 1.1407,3.9063 0,1.7344 -0.5,2.9375 -0.5,1.2031 -1.2813,1.75 -0.7656,0.5469 -1.4844,0.5469 -1.4219,0 -2.3593,-1.6719 -0.7969,-1.4219 -0.7969,-3.4062 z m 1.4375,0.1874 q 0,2.0469 0.5,3.3438 0.4218,1.0938 1.25,1.0938 0.3906,0 0.8125,-0.3594 0.4219,-0.3594 0.6406,-1.1875 0.3437,-1.2657 0.3437,-3.5625 0,-1.6875 -0.3593,-2.8282 -0.25,-0.8437 -0.6719,-1.1874 -0.2969,-0.25 -0.7344,-0.25 -0.4844,0 -0.875,0.4531 -0.5312,0.6093 -0.7187,1.9219 -0.1875,1.2968 -0.1875,2.5624 z m 7.3906,3.2969 q 0.3438,0 0.5781,0.25 0.2344,0.2344 0.2344,0.5625 0,0.3438 -0.2344,0.5782 -0.2343,0.2343 -0.5781,0.2343 -0.3438,0 -0.5781,-0.2343 -0.2344,-0.2344 -0.2344,-0.5782 0,-0.3437 0.2344,-0.5781 0.2343,-0.2344 0.5781,-0.2344 z m 8.3906,-8.5156 -0.5781,1.25 h -2.9844 l -0.6562,1.3281 q 1.9375,0.2969 3.0781,1.4532 0.9688,0.9843 0.9688,2.3437 0,0.7813 -0.3126,1.4531 -0.3124,0.6563 -0.7968,1.125 -0.4844,0.4688 -1.0782,0.75 -0.8437,0.4063 -1.7343,0.4063 -0.8907,0 -1.2969,-0.2969 -0.4062,-0.3125 -0.4062,-0.6719 0,-0.2031 0.1718,-0.3593 0.1719,-0.1563 0.4219,-0.1563 0.1875,0 0.3281,0.0625 0.1406,0.0469 0.4844,0.2969 0.5625,0.375 1.125,0.375 0.8594,0 1.5,-0.6407 0.6406,-0.6562 0.6406,-1.5937 0,-0.8906 -0.5781,-1.6719 -0.5781,-0.7812 -1.5937,-1.2031 -0.7969,-0.3281 -2.1719,-0.3906 l 1.9062,-3.8594 z"
       style="stroke:none"
       clip-path="url(#clipPath4)"
       id="path142" />
  </g>
  <g
     transform="matrix(0.30346472,0,0,0.30346472,-0.11224358,-0.2753374)"
     style="font-family:'Times New Roman';color-interpolation:linearRGB;color-rendering:optimizeQuality;image-rendering:optimizeQuality;text-rendering:optimizeLegibility"
     id="g148">
    <path
       d="m 111.1949,245.0084 h -5"
       style="fill:none"
       clip-path="url(#clipPath1)"
       id="path146" />
  </g>
  <g
     transform="matrix(0.30346472,0,0,0.30346472,-0.11224358,-0.2753374)"
     style="font-family:'Times New Roman';color-interpolation:linearRGB;color-rendering:optimizeQuality;image-rendering:optimizeQuality;text-rendering:optimizeLegibility"
     id="g154">
    <path
       d="m 111.1949,127.5126 h -5"
       style="fill:none"
       clip-path="url(#clipPath1)"
       id="path150" />
    <path
       d="m 90.5469,133.0938 q 0,-1.7032 0.5,-2.9219 0.5156,-1.2344 1.375,-1.8281 0.6562,-0.4844 1.3593,-0.4844 1.1407,0 2.0469,1.1718 1.1407,1.4376 1.1407,3.9063 0,1.7344 -0.5,2.9375 -0.5,1.2031 -1.2813,1.75 -0.7656,0.5469 -1.4844,0.5469 -1.4219,0 -2.3593,-1.6719 -0.7969,-1.4219 -0.7969,-3.4062 z m 1.4375,0.1874 q 0,2.0469 0.5,3.3438 0.4218,1.0938 1.25,1.0938 0.3906,0 0.8125,-0.3594 0.4219,-0.3594 0.6406,-1.1875 0.3437,-1.2657 0.3437,-3.5625 0,-1.6875 -0.3593,-2.8282 -0.25,-0.8437 -0.6719,-1.1874 -0.2969,-0.25 -0.7344,-0.25 -0.4844,0 -0.875,0.4531 -0.5312,0.6093 -0.7187,1.9219 -0.1875,1.2968 -0.1875,2.5624 z m 7.3906,3.2969 q 0.3438,0 0.5781,0.25 0.2344,0.2344 0.2344,0.5625 0,0.3438 -0.2344,0.5782 -0.2343,0.2343 -0.5781,0.2343 -0.3438,0 -0.5781,-0.2343 -0.2344,-0.2344 -0.2344,-0.5782 0,-0.3437 0.2344,-0.5781 0.2343,-0.2344 0.5781,-0.2344 z m 8.3906,-8.5156 -0.5781,1.25 h -2.9844 l -0.6562,1.3281 q 1.9375,0.2969 3.0781,1.4532 0.9688,0.9843 0.9688,2.3437 0,0.7813 -0.3126,1.4531 -0.3124,0.6563 -0.7968,1.125 -0.4844,0.4688 -1.0782,0.75 -0.8437,0.4063 -1.7343,0.4063 -0.8907,0 -1.2969,-0.2969 -0.4062,-0.3125 -0.4062,-0.6719 0,-0.2031 0.1718,-0.3593 0.1719,-0.1563 0.4219,-0.1563 0.1875,0 0.3281,0.0625 0.1406,0.0469 0.4844,0.2969 0.5625,0.375 1.125,0.375 0.8594,0 1.5,-0.6407 0.6406,-0.6562 0.6406,-1.5937 0,-0.8906 -0.5781,-1.6719 -0.5781,-0.7812 -1.5937,-1.2031 -0.7969,-0.3281 -2.1719,-0.3906 l 1.9062,-3.8594 z"
       style="stroke:none"
       transform="translate(-6,-5)"
       clip-path="url(#clipPath4)"
       id="path152" />
  </g>
  <g
     transform="matrix(0.30346472,0,0,0.30346472,-0.11224358,-0.2753374)"
     style="font-family:'Times New Roman';color-interpolation:linearRGB;color-rendering:optimizeQuality;image-rendering:optimizeQuality;text-rendering:optimizeLegibility"
     id="g160">
    <path
       d="m 111.1949,10.0168 h -5"
       style="fill:none"
       clip-path="url(#clipPath1)"
       id="path156" />
    <path
       d="m 103.7656,12.0469 2.4063,-1.1875 h 0.25 V 19.25 q 0,0.8281 0.0625,1.0469 0.0781,0.2031 0.2968,0.3125 0.2188,0.1094 0.8907,0.125 V 21 h -3.7344 v -0.2656 q 0.7031,-0.0156 0.9063,-0.125 0.2031,-0.1094 0.2812,-0.2813 0.0781,-0.1875 0.0781,-1.0781 v -5.3594 q 0,-1.0937 -0.0625,-1.3906 -0.0625,-0.2344 -0.2031,-0.3438 -0.125,-0.1093 -0.3125,-0.1093 -0.2812,0 -0.75,0.2187 z"
       style="stroke:none"
       transform="translate(-6,-5)"
       clip-path="url(#clipPath4)"
       id="path158" />
  </g>
  <g
     transform="matrix(0.30346472,0,0,0.30346472,-0.11224358,-0.2753374)"
     style="font-family:'Times New Roman';color-interpolation:linearRGB;color-rendering:optimizeQuality;image-rendering:optimizeQuality;text-rendering:optimizeLegibility"
     id="g164">
    <path
       d="m 111.1949,456.5009 h -2.5"
       style="fill:none"
       clip-path="url(#clipPath1)"
       id="path162" />
  </g>
  <g
     transform="matrix(0.30346472,0,0,0.30346472,-0.11224358,-0.2753374)"
     style="font-family:'Times New Roman';color-interpolation:linearRGB;color-rendering:optimizeQuality;image-rendering:optimizeQuality;text-rendering:optimizeLegibility"
     id="g168">
    <path
       d="m 111.1949,433.0017 h -2.5"
       style="fill:none"
       clip-path="url(#clipPath1)"
       id="path166" />
  </g>
  <g
     transform="matrix(0.30346472,0,0,0.30346472,-0.11224358,-0.2753374)"
     style="font-family:'Times New Roman';color-interpolation:linearRGB;color-rendering:optimizeQuality;image-rendering:optimizeQuality;text-rendering:optimizeLegibility"
     id="g172">
    <path
       d="m 111.1949,409.5025 h -2.5"
       style="fill:none"
       clip-path="url(#clipPath1)"
       id="path170" />
  </g>
  <g
     transform="matrix(0.30346472,0,0,0.30346472,-0.11224358,-0.2753374)"
     style="font-family:'Times New Roman';color-interpolation:linearRGB;color-rendering:optimizeQuality;image-rendering:optimizeQuality;text-rendering:optimizeLegibility"
     id="g176">
    <path
       d="m 111.1949,386.0034 h -2.5"
       style="fill:none"
       clip-path="url(#clipPath1)"
       id="path174" />
  </g>
  <g
     transform="matrix(0.30346472,0,0,0.30346472,-0.11224358,-0.2753374)"
     style="font-family:'Times New Roman';color-interpolation:linearRGB;color-rendering:optimizeQuality;image-rendering:optimizeQuality;text-rendering:optimizeLegibility"
     id="g180">
    <path
       d="m 111.1949,339.0051 h -2.5"
       style="fill:none"
       clip-path="url(#clipPath1)"
       id="path178" />
  </g>
  <g
     transform="matrix(0.30346472,0,0,0.30346472,-0.11224358,-0.2753374)"
     style="font-family:'Times New Roman';color-interpolation:linearRGB;color-rendering:optimizeQuality;image-rendering:optimizeQuality;text-rendering:optimizeLegibility"
     id="g184">
    <path
       d="m 111.1949,315.5059 h -2.5"
       style="fill:none"
       clip-path="url(#clipPath1)"
       id="path182" />
  </g>
  <g
     transform="matrix(0.30346472,0,0,0.30346472,-0.11224358,-0.2753374)"
     style="font-family:'Times New Roman';color-interpolation:linearRGB;color-rendering:optimizeQuality;image-rendering:optimizeQuality;text-rendering:optimizeLegibility"
     id="g188">
    <path
       d="m 111.1949,292.0067 h -2.5"
       style="fill:none"
       clip-path="url(#clipPath1)"
       id="path186" />
  </g>
  <g
     transform="matrix(0.30346472,0,0,0.30346472,-0.11224358,-0.2753374)"
     style="font-family:'Times New Roman';color-interpolation:linearRGB;color-rendering:optimizeQuality;image-rendering:optimizeQuality;text-rendering:optimizeLegibility"
     id="g192">
    <path
       d="m 111.1949,268.5076 h -2.5"
       style="fill:none"
       clip-path="url(#clipPath1)"
       id="path190" />
  </g>
  <g
     transform="matrix(0.30346472,0,0,0.30346472,-0.11224358,-0.2753374)"
     style="font-family:'Times New Roman';color-interpolation:linearRGB;color-rendering:optimizeQuality;image-rendering:optimizeQuality;text-rendering:optimizeLegibility"
     id="g196">
    <path
       d="m 111.1949,221.5092 h -2.5"
       style="fill:none"
       clip-path="url(#clipPath1)"
       id="path194" />
  </g>
  <g
     transform="matrix(0.30346472,0,0,0.30346472,-0.11224358,-0.2753374)"
     style="font-family:'Times New Roman';color-interpolation:linearRGB;color-rendering:optimizeQuality;image-rendering:optimizeQuality;text-rendering:optimizeLegibility"
     id="g200">
    <path
       d="m 111.1949,198.0101 h -2.5"
       style="fill:none"
       clip-path="url(#clipPath1)"
       id="path198" />
  </g>
  <g
     transform="matrix(0.30346472,0,0,0.30346472,-0.11224358,-0.2753374)"
     style="font-family:'Times New Roman';color-interpolation:linearRGB;color-rendering:optimizeQuality;image-rendering:optimizeQuality;text-rendering:optimizeLegibility"
     id="g204">
    <path
       d="m 111.1949,174.5109 h -2.5"
       style="fill:none"
       clip-path="url(#clipPath1)"
       id="path202" />
  </g>
  <g
     transform="matrix(0.30346472,0,0,0.30346472,-0.11224358,-0.2753374)"
     style="font-family:'Times New Roman';color-interpolation:linearRGB;color-rendering:optimizeQuality;image-rendering:optimizeQuality;text-rendering:optimizeLegibility"
     id="g208">
    <path
       d="m 111.1949,151.0118 h -2.5"
       style="fill:none"
       clip-path="url(#clipPath1)"
       id="path206" />
  </g>
  <g
     transform="matrix(0.30346472,0,0,0.30346472,-0.11224358,-0.2753374)"
     style="font-family:'Times New Roman';color-interpolation:linearRGB;color-rendering:optimizeQuality;image-rendering:optimizeQuality;text-rendering:optimizeLegibility"
     id="g212">
    <path
       d="m 111.1949,104.0135 h -2.5"
       style="fill:none"
       clip-path="url(#clipPath1)"
       id="path210" />
  </g>
  <g
     transform="matrix(0.30346472,0,0,0.30346472,-0.11224358,-0.2753374)"
     style="font-family:'Times New Roman';color-interpolation:linearRGB;color-rendering:optimizeQuality;image-rendering:optimizeQuality;text-rendering:optimizeLegibility"
     id="g216">
    <path
       d="m 111.1949,80.5143 h -2.5"
       style="fill:none"
       clip-path="url(#clipPath1)"
       id="path214" />
  </g>
  <g
     transform="matrix(0.30346472,0,0,0.30346472,-0.11224358,-0.2753374)"
     style="font-family:'Times New Roman';color-interpolation:linearRGB;color-rendering:optimizeQuality;image-rendering:optimizeQuality;text-rendering:optimizeLegibility"
     id="g220">
    <path
       d="m 111.1949,57.0151 h -2.5"
       style="fill:none"
       clip-path="url(#clipPath1)"
       id="path218" />
  </g>
  <g
     transform="matrix(0.30346472,0,0,0.30346472,-0.11224358,-0.2753374)"
     style="font-family:'Times New Roman';color-interpolation:linearRGB;color-rendering:optimizeQuality;image-rendering:optimizeQuality;text-rendering:optimizeLegibility"
     id="g224">
    <path
       d="m 111.1949,33.516 h -2.5"
       style="fill:none"
       clip-path="url(#clipPath1)"
       id="path222" />
  </g>
</svg>
